<svg xmlns:dc="http://purl.org/dc/elements/1.1/" xmlns:cc="http://creativecommons.org/ns#" xmlns:rdf="http://www.w3.org/1999/02/22-rdf-syntax-ns#" xmlns:svg="http://www.w3.org/2000/svg" xmlns="http://www.w3.org/2000/svg" id="svg83599" viewBox="0 0 1024 768" height="768px" width="1024px" version="1.1">
  <metadata id="metadata83605">
    <rdf:rdf>
      <cc:work rdf:about="">
        <dc:format>image/svg+xml</dc:format>
        <dc:type rdf:resource="http://purl.org/dc/dcmitype/StillImage"></dc:type>
      </cc:work>
    </rdf:rdf>
  </metadata>
  <defs id="defs83603"></defs>
  <g id="logo-group">
    <g id="title" style="font-style:normal;font-weight:300;font-size:72px;line-height:1;font-family:'Montserrat Light Alt1';font-variant-ligatures:none;text-align:center;text-anchor:middle">
      <path id="path83607" style="font-style: normal; font-weight: 300; font-size: 72px; line-height: 1; font-family: &quot;Montserrat Light Alt1&quot;; font-variant-ligatures: none; text-align: center; text-anchor: middle; fill: rgb(0, 0, 0);" d="m 490.11031,66.576 h -3.6 v 24.552 c -1.584,-2.808 -3.672,-5.04 -6.336,-6.624 -2.664,-1.584 -5.688,-2.376 -9,-2.376 -3.528,0 -6.696,0.864 -9.504,2.448 -2.88,1.584 -5.112,3.888 -6.696,6.768 -1.584,2.88 -2.376,6.192 -2.376,9.864 0,3.744 0.792,6.984 2.376,9.864 1.584,2.88 3.816,5.184 6.696,6.768 2.808,1.656 5.976,2.448 9.504,2.448 3.384,0 6.408,-0.792 9.144,-2.376 2.664,-1.584 4.752,-3.816 6.264,-6.768 V 120 h 3.528 z m -11.016,48.456 c -2.304,1.368 -4.824,2.016 -7.704,2.016 -2.88,0 -5.472,-0.648 -7.776,-2.016 -2.304,-1.296 -4.104,-3.168 -5.4,-5.616 -1.296,-2.376 -1.944,-5.112 -1.944,-8.208 0,-3.024 0.648,-5.76 1.944,-8.208 1.296,-2.376 3.096,-4.248 5.4,-5.616 2.304,-1.296 4.896,-2.016 7.776,-2.016 2.88,0 5.4,0.72 7.704,2.016 2.304,1.368 4.104,3.24 5.4,5.616 1.296,2.448 2.016,5.184 2.016,8.208 0,3.096 -0.72,5.832 -2.016,8.208 -1.296,2.448 -3.096,4.32 -5.4,5.616 z" transform="translate(0 -27.67881072886027) translate(251.99999999999994 272.1031187876845) scale(4.336083855859236) translate(-452.59831 -66.576)"></path>
      <path id="path83609" style="font-style: normal; font-weight: 300; font-size: 72px; line-height: 1; font-family: &quot;Montserrat Light Alt1&quot;; font-variant-ligatures: none; text-align: center; text-anchor: middle; fill: rgb(65, 65, 65);" d="m 534.87856,86.232 c -2.736,-2.736 -6.48,-4.104 -11.16,-4.104 -3.456,0 -6.48,0.72 -9,2.16 -2.592,1.44 -4.464,3.384 -5.76,5.976 V 66.576 h -3.6 V 120 h 3.6 V 99.984 c 0,-4.464 1.224,-7.992 3.816,-10.656 2.52,-2.592 5.976,-3.96 10.44,-3.96 3.816,0 6.768,1.152 8.928,3.312 2.16,2.232 3.24,5.472 3.24,9.648 V 120 h 3.6 V 98.04 c 0,-5.112 -1.368,-9.072 -4.104,-11.808 z" transform="translate(0 -27.67881072886027) translate(480.7728682560971 272.1031187876845) scale(4.336083855859236) translate(-505.35856 -66.576)"></path>
      <path id="path83611" style="font-style: normal; font-weight: 300; font-size: 72px; line-height: 1; font-family: &quot;Montserrat Light Alt1&quot;; font-variant-ligatures: none; text-align: center; text-anchor: middle; fill: rgb(122, 122, 122);" d="m 572.52219,117.624 -1.512,-2.52 c -1.584,1.44 -3.528,2.088 -5.832,2.088 -2.304,0 -4.104,-0.576 -5.256,-1.872 -1.152,-1.296 -1.728,-3.168 -1.728,-5.616 V 85.512 h 11.952 v -3.096 h -11.952 v -8.208 h -3.6 v 8.208 h -6.912 v 3.096 h 6.912 v 24.552 c 0,3.24 0.864,5.76 2.664,7.56 1.728,1.8 4.248,2.664 7.56,2.664 1.44,0 2.88,-0.216 4.248,-0.648 1.368,-0.432 2.52,-1.152 3.456,-2.016 z" transform="translate(0 -27.67881072886027) translate(664.2916770204565 305.19611077560216) scale(4.336083855859236) translate(-547.68219 -74.208)"></path>
    </g>
    <g id="tagline" style="font-style:normal;font-weight:400;font-size:32px;line-height:1;font-family:Montserrat;font-variant-ligatures:none;text-align:center;text-anchor:middle">
      <path id="path83614" style="font-style: normal; font-weight: 400; font-size: 32px; line-height: 1; font-family: Montserrat; font-variant-ligatures: none; text-align: center; text-anchor: middle; fill: rgb(0, 0, 0);" d="M 234.46925,226.256 V 250 h -2.976 v -3.36 q -0.96,1.696 -2.592,2.624 -1.6,0.896 -3.744,0.896 -2.4,0 -4.256,-1.088 -1.824,-1.12 -2.848,-3.072 -1.024,-1.984 -1.024,-4.512 0,-2.496 1.024,-4.416 1.024,-1.952 2.848,-3.04 1.856,-1.088 4.224,-1.088 2.176,0 3.808,0.896 1.632,0.896 2.56,2.592 v -10.176 z m -8.704,21.344 q 1.664,0 2.944,-0.768 1.312,-0.768 2.048,-2.144 0.736,-1.376 0.736,-3.104 0,-1.76 -0.736,-3.136 -0.736,-1.376 -2.048,-2.144 -1.28,-0.768 -2.944,-0.768 -1.664,0 -2.976,0.8 -1.28,0.768 -2.016,2.144 -0.736,1.376 -0.736,3.104 0,1.728 0.736,3.104 0.736,1.376 2.016,2.144 1.312,0.768 2.976,0.768 z" transform="translate(0 474.4158144586283) translate(252.00000000000017 22.708229666107286) scale(0.8793765896422958) translate(-217.02925 -226.256)"></path>
      <path id="path83616" style="font-style: normal; font-weight: 400; font-size: 32px; line-height: 1; font-family: Montserrat; font-variant-ligatures: none; text-align: center; text-anchor: middle; fill: rgb(0, 0, 0);" d="m 240.44325,233.072 h 2.976 V 250 h -2.976 z m 1.472,-6.752 q 0.8,0 1.312,0.544 0.544,0.544 0.544,1.376 0,0.832 -0.544,1.376 -0.512,0.544 -1.312,0.544 -0.8,0 -1.344,-0.544 -0.512,-0.544 -0.512,-1.376 0,-0.832 0.512,-1.376 0.544,-0.544 1.344,-0.544 z" transform="translate(0 474.4158144586283) translate(272.2520428594623 22.764509767844373) scale(0.8793765896422958) translate(-240.05925 -226.32)"></path>
      <path id="path83618" style="font-style: normal; font-weight: 400; font-size: 32px; line-height: 1; font-family: Montserrat; font-variant-ligatures: none; text-align: center; text-anchor: middle; fill: rgb(0, 0, 0);" d="m 258.44125,236.816 q -1.056,-0.64 -2.336,-1.024 -1.248,-0.384 -2.4,-0.384 -1.344,0 -2.176,0.512 -0.8,0.48 -0.8,1.504 0,1.024 0.896,1.568 0.928,0.512 2.784,1.056 1.76,0.512 2.88,1.024 1.12,0.512 1.888,1.504 0.8,0.992 0.8,2.624 0,2.4 -1.824,3.648 -1.792,1.248 -4.48,1.248 -1.888,0 -3.68,-0.608 -1.76,-0.608 -2.976,-1.728 l 1.12,-2.176 q 1.056,0.96 2.592,1.536 1.568,0.576 3.04,0.576 1.472,0 2.368,-0.544 0.896,-0.544 0.896,-1.664 0,-1.152 -0.96,-1.728 -0.928,-0.576 -2.848,-1.152 -1.696,-0.48 -2.784,-0.96 -1.056,-0.512 -1.824,-1.472 -0.736,-0.96 -0.736,-2.496 0,-2.368 1.728,-3.552 1.728,-1.184 4.32,-1.184 1.536,0 3.008,0.448 1.504,0.416 2.592,1.152 z" transform="translate(0 474.4158144586283) translate(278.3707451701934 28.58950029763494) scale(0.8793765896422958) translate(-247.01725 -232.944)"></path>
      <path id="path83620" style="font-style: normal; font-weight: 400; font-size: 32px; line-height: 1; font-family: Montserrat; font-variant-ligatures: none; text-align: center; text-anchor: middle; fill: rgb(0, 0, 0);" d="m 273.03125,248.88 q -1.952,1.248 -3.968,1.248 -2.016,0 -3.264,-1.184 -1.248,-1.216 -1.248,-3.648 v -9.376 h -2.4 v -2.272 h 2.4 v -4.544 h 3.008 v 4.544 h 5.184 v 2.272 h -5.184 v 8.832 q 0,1.408 0.512,2.016 0.512,0.608 1.536,0.608 1.216,0 2.624,-0.8 z" transform="translate(0 474.4158144586283) translate(291.67923047783995 25.212694193408538) scale(0.8793765896422958) translate(-262.15125 -229.104)"></path>
      <path id="path83622" style="font-style: normal; font-weight: 400; font-size: 32px; line-height: 1; font-family: Montserrat; font-variant-ligatures: none; text-align: center; text-anchor: middle; fill: rgb(0, 0, 0);" d="m 276.63075,233.072 h 2.976 V 250 h -2.976 z m 1.472,-6.752 q 0.8,0 1.312,0.544 0.544,0.544 0.544,1.376 0,0.832 -0.544,1.376 -0.512,0.544 -1.312,0.544 -0.8,0 -1.344,-0.544 -0.512,-0.544 -0.512,-1.376 0,-0.832 0.512,-1.376 0.544,-0.544 1.344,-0.544 z" transform="translate(0 474.4158144586283) translate(304.07448319714297 22.764509767844373) scale(0.8793765896422958) translate(-276.24675 -226.32)"></path>
      <path id="path83624" style="font-style: normal; font-weight: 400; font-size: 32px; line-height: 1; font-family: Montserrat; font-variant-ligatures: none; text-align: center; text-anchor: middle; fill: rgb(0, 0, 0);" d="m 285.54075,226.256 h 2.976 V 250 h -2.976 z" transform="translate(0 474.4158144586283) translate(312.2474092212785 22.708229666107286) scale(0.8793765896422958) translate(-285.54075 -226.256)"></path>
      <path id="path83626" style="font-style: normal; font-weight: 400; font-size: 32px; line-height: 1; font-family: Montserrat; font-variant-ligatures: none; text-align: center; text-anchor: middle; fill: rgb(0, 0, 0);" d="m 294.66575,226.256 h 2.976 V 250 h -2.976 z" transform="translate(0 474.4158144586283) translate(320.27172060176446 22.708229666107286) scale(0.8793765896422958) translate(-294.66575 -226.256)"></path>
      <path id="path83628" style="font-style: normal; font-weight: 400; font-size: 32px; line-height: 1; font-family: Montserrat; font-variant-ligatures: none; text-align: center; text-anchor: middle; fill: rgb(0, 0, 0);" d="m 313.96675,250 v -2.368 q -1.888,2.496 -5.92,2.496 -1.76,0 -3.104,-0.672 -1.312,-0.672 -2.048,-1.856 -0.704,-1.184 -0.704,-2.656 0,-2.272 1.664,-3.584 1.696,-1.344 4.704,-1.376 h 5.376 v -0.8 q 0,-1.792 -1.12,-2.752 -1.088,-0.992 -3.2,-0.992 -2.56,0 -5.216,1.824 l -1.248,-2.048 q 1.824,-1.184 3.36,-1.696 1.568,-0.544 3.712,-0.544 3.168,0 4.896,1.568 1.728,1.536 1.76,4.32 l 0.032,11.136 z m -5.312,-2.336 q 2.08,0 3.52,-0.992 1.472,-1.024 1.76,-2.688 v -1.696 h -4.96 q -2.016,0 -3.008,0.608 -0.96,0.608 -0.96,1.92 0,1.312 0.992,2.08 0.992,0.768 2.656,0.768 z" transform="translate(0 474.4158144586283) translate(326.8890294388227 28.6176403485035) scale(0.8793765896422958) translate(-302.19075 -232.976)"></path>
      <path id="path83630" style="font-style: normal; font-weight: 400; font-size: 32px; line-height: 1; font-family: Montserrat; font-variant-ligatures: none; text-align: center; text-anchor: middle; fill: rgb(0, 0, 0);" d="m 331.28125,248.88 q -1.952,1.248 -3.968,1.248 -2.016,0 -3.264,-1.184 -1.248,-1.216 -1.248,-3.648 v -9.376 h -2.4 v -2.272 h 2.4 v -4.544 h 3.008 v 4.544 h 5.184 v 2.272 h -5.184 v 8.832 q 0,1.408 0.512,2.016 0.512,0.608 1.536,0.608 1.216,0 2.624,-0.8 z" transform="translate(0 474.4158144586283) translate(342.90291682450373 25.212694193408538) scale(0.8793765896422958) translate(-320.40125 -229.104)"></path>
      <path id="path83632" style="font-style: normal; font-weight: 400; font-size: 32px; line-height: 1; font-family: Montserrat; font-variant-ligatures: none; text-align: center; text-anchor: middle; fill: rgb(0, 0, 0);" d="m 341.41475,232.976 q 3.936,0 5.952,2.336 2.016,2.304 2.016,6.432 0,0.64 -0.032,0.96 h -13.376 q 0.352,2.272 1.888,3.616 1.568,1.344 3.84,1.344 1.504,0 2.784,-0.544 1.312,-0.544 2.272,-1.536 l 1.632,1.696 q -1.248,1.344 -3.008,2.08 -1.76,0.736 -3.904,0.736 -2.496,0 -4.448,-1.056 -1.92,-1.088 -3.008,-3.04 -1.056,-1.952 -1.056,-4.448 0,-2.496 1.056,-4.416 1.088,-1.952 3.008,-3.04 1.92,-1.12 4.384,-1.12 z m 5.28,7.424 q -0.128,-2.304 -1.536,-3.616 -1.408,-1.344 -3.712,-1.344 -2.24,0 -3.744,1.344 -1.472,1.344 -1.76,3.616 z" transform="translate(0 474.4158144586283) translate(353.952723361654 28.6176403485035) scale(0.8793765896422958) translate(-332.96675 -232.976)"></path>
      <path id="path83634" style="font-style: normal; font-weight: 400; font-size: 32px; line-height: 1; font-family: Montserrat; font-variant-ligatures: none; text-align: center; text-anchor: middle; fill: rgb(0, 0, 0);" d="m 362.69125,236.816 q -1.056,-0.64 -2.336,-1.024 -1.248,-0.384 -2.4,-0.384 -1.344,0 -2.176,0.512 -0.8,0.48 -0.8,1.504 0,1.024 0.896,1.568 0.928,0.512 2.784,1.056 1.76,0.512 2.88,1.024 1.12,0.512 1.888,1.504 0.8,0.992 0.8,2.624 0,2.4 -1.824,3.648 -1.792,1.248 -4.48,1.248 -1.888,0 -3.68,-0.608 -1.76,-0.608 -2.976,-1.728 l 1.12,-2.176 q 1.056,0.96 2.592,1.536 1.568,0.576 3.04,0.576 1.472,0 2.368,-0.544 0.896,-0.544 0.896,-1.664 0,-1.152 -0.96,-1.728 -0.928,-0.576 -2.848,-1.152 -1.696,-0.48 -2.784,-0.96 -1.056,-0.512 -1.824,-1.472 -0.736,-0.96 -0.736,-2.496 0,-2.368 1.728,-3.552 1.728,-1.184 4.32,-1.184 1.536,0 3.008,0.448 1.504,0.416 2.592,1.152 z" transform="translate(0 474.4158144586283) translate(370.04575464040283 28.58950029763494) scale(0.8793765896422958) translate(-351.26725 -232.944)"></path>
      <path id="path83636" style="font-style: normal; font-weight: 400; font-size: 32px; line-height: 1; font-family: Montserrat; font-variant-ligatures: none; text-align: center; text-anchor: middle; fill: rgb(0, 0, 0);" d="m 383.60825,232.976 q 2.528,0 4.48,1.088 1.984,1.088 3.072,3.04 1.12,1.92 1.12,4.416 0,2.496 -1.12,4.448 -1.088,1.952 -3.072,3.04 -1.952,1.088 -4.48,1.088 -2.56,0 -4.544,-1.088 -1.952,-1.088 -3.072,-3.008 -1.088,-1.952 -1.088,-4.48 0,-2.496 1.088,-4.416 1.12,-1.952 3.072,-3.04 1.984,-1.088 4.544,-1.088 z m 0,2.592 q -1.664,0 -2.976,0.768 -1.28,0.768 -2.016,2.144 -0.704,1.344 -0.704,3.072 0,1.76 0.704,3.136 0.736,1.376 2.016,2.144 1.312,0.736 2.976,0.736 1.632,0 2.912,-0.736 1.312,-0.768 2.016,-2.144 0.736,-1.376 0.736,-3.136 0,-1.728 -0.736,-3.072 -0.704,-1.376 -2.016,-2.144 -1.28,-0.768 -2.912,-0.768 z" transform="translate(0 474.4158144586283) translate(390.8315790897778 28.6176403485035) scale(0.8793765896422958) translate(-374.90425 -232.976)"></path>
      <path id="path83638" style="font-style: normal; font-weight: 400; font-size: 32px; line-height: 1; font-family: Montserrat; font-variant-ligatures: none; text-align: center; text-anchor: middle; fill: rgb(0, 0, 0);" d="m 405.85125,232.976 q 2.976,0 4.672,1.76 1.696,1.728 1.696,4.8 V 250 h -2.976 v -9.664 q 0,-2.144 -1.216,-3.328 -1.184,-1.216 -3.296,-1.216 -2.272,0.032 -3.712,1.472 -1.408,1.408 -1.6,3.68 V 250 h -2.976 v -16.928 h 2.976 v 3.584 q 1.696,-3.616 6.432,-3.68 z" transform="translate(0 474.4158144586283) translate(409.7724714540832 28.6176403485035) scale(0.8793765896422958) translate(-396.44325 -232.976)"></path>
      <path id="path83640" style="font-style: normal; font-weight: 400; font-size: 32px; line-height: 1; font-family: Montserrat; font-variant-ligatures: none; text-align: center; text-anchor: middle; fill: rgb(0, 0, 0);" d="m 435.48075,232.976 q 2.976,0 4.672,1.76 1.696,1.728 1.696,4.8 V 250 h -2.976 v -9.664 q 0,-2.144 -1.216,-3.328 -1.184,-1.216 -3.296,-1.216 -2.464,0.032 -3.904,1.664 -1.44,1.632 -1.44,4.224 V 250 h -2.976 v -23.744 h 2.976 v 10.464 q 1.696,-3.68 6.464,-3.744 z" transform="translate(0 474.4158144586283) translate(435.7998200660211 22.708229666107286) scale(0.8793765896422958) translate(-426.04075 -226.256)"></path>
      <path id="path83642" style="font-style: normal; font-weight: 400; font-size: 32px; line-height: 1; font-family: Montserrat; font-variant-ligatures: none; text-align: center; text-anchor: middle; fill: rgb(0, 0, 0);" d="M 462.10675,233.072 V 250 h -3.008 v -3.584 q -1.664,3.616 -6.272,3.68 -2.944,0 -4.608,-1.728 -1.664,-1.76 -1.664,-4.832 v -10.464 h 3.008 v 9.664 q 0,2.144 1.152,3.36 1.184,1.184 3.232,1.184 2.368,-0.032 3.744,-1.664 1.408,-1.664 1.408,-4.224 v -8.32 z" transform="translate(0 474.4158144586283) translate(453.83935142594316 28.702060501109173) scale(0.8793765896422958) translate(-446.55475 -233.072)"></path>
      <path id="path83644" style="font-style: normal; font-weight: 400; font-size: 32px; line-height: 1; font-family: Montserrat; font-variant-ligatures: none; text-align: center; text-anchor: middle; fill: rgb(0, 0, 0);" d="m 489.73675,232.976 q 2.912,0 4.576,1.76 1.664,1.76 1.664,4.8 V 250 h -3.008 v -9.664 q 0,-2.144 -1.184,-3.36 -1.152,-1.216 -3.2,-1.216 -2.4,0.064 -3.776,1.696 -1.376,1.632 -1.376,4.192 V 250 h -3.008 v -9.664 q 0,-2.144 -1.152,-3.36 -1.152,-1.216 -3.232,-1.216 -2.4,0.064 -3.808,1.696 -1.376,1.632 -1.376,4.192 V 250 h -2.976 v -16.928 h 2.976 v 3.552 q 1.664,-3.584 6.304,-3.648 2.336,0 3.872,1.12 1.568,1.12 2.112,3.136 1.568,-4.192 6.592,-4.256 z" transform="translate(0 474.4158144586283) translate(472.59293657665467 28.6176403485035) scale(0.8793765896422958) translate(-467.88075 -232.976)"></path>
      <path id="path83646" style="font-style: normal; font-weight: 400; font-size: 32px; line-height: 1; font-family: Montserrat; font-variant-ligatures: none; text-align: center; text-anchor: middle; fill: rgb(0, 0, 0);" d="m 511.65425,250 v -2.368 q -1.888,2.496 -5.92,2.496 -1.76,0 -3.104,-0.672 -1.312,-0.672 -2.048,-1.856 -0.704,-1.184 -0.704,-2.656 0,-2.272 1.664,-3.584 1.696,-1.344 4.704,-1.376 h 5.376 v -0.8 q 0,-1.792 -1.12,-2.752 -1.088,-0.992 -3.2,-0.992 -2.56,0 -5.216,1.824 l -1.248,-2.048 q 1.824,-1.184 3.36,-1.696 1.568,-0.544 3.712,-0.544 3.168,0 4.896,1.568 1.728,1.536 1.76,4.32 l 0.032,11.136 z m -5.312,-2.336 q 2.08,0 3.52,-0.992 1.472,-1.024 1.76,-2.688 v -1.696 h -4.96 q -2.016,0 -3.008,0.608 -0.96,0.608 -0.96,1.92 0,1.312 0.992,2.08 0.992,0.768 2.656,0.768 z" transform="translate(0 474.4158144586283) translate(500.730789003734 28.6176403485035) scale(0.8793765896422958) translate(-499.87825 -232.976)"></path>
      <path id="path83648" style="font-style: normal; font-weight: 400; font-size: 32px; line-height: 1; font-family: Montserrat; font-variant-ligatures: none; text-align: center; text-anchor: middle; fill: rgb(0, 0, 0);" d="m 529.28875,232.976 q 2.976,0 4.672,1.76 1.696,1.728 1.696,4.8 V 250 h -2.976 v -9.664 q 0,-2.144 -1.216,-3.328 -1.184,-1.216 -3.296,-1.216 -2.272,0.032 -3.712,1.472 -1.408,1.408 -1.6,3.68 V 250 h -2.976 v -16.928 h 2.976 v 3.584 q 1.696,-3.616 6.432,-3.68 z" transform="translate(0 474.4158144586283) translate(518.320519238054 28.6176403485035) scale(0.8793765896422958) translate(-519.88075 -232.976)"></path>
      <path id="path83650" style="font-style: normal; font-weight: 400; font-size: 32px; line-height: 1; font-family: Montserrat; font-variant-ligatures: none; text-align: center; text-anchor: middle; fill: rgb(0, 0, 0);" d="m 550.19125,236.816 q -1.056,-0.64 -2.336,-1.024 -1.248,-0.384 -2.4,-0.384 -1.344,0 -2.176,0.512 -0.8,0.48 -0.8,1.504 0,1.024 0.896,1.568 0.928,0.512 2.784,1.056 1.76,0.512 2.88,1.024 1.12,0.512 1.888,1.504 0.8,0.992 0.8,2.624 0,2.4 -1.824,3.648 -1.792,1.248 -4.48,1.248 -1.888,0 -3.68,-0.608 -1.76,-0.608 -2.976,-1.728 l 1.12,-2.176 q 1.056,0.96 2.592,1.536 1.568,0.576 3.04,0.576 1.472,0 2.368,-0.544 0.896,-0.544 0.896,-1.664 0,-1.152 -0.96,-1.728 -0.928,-0.576 -2.848,-1.152 -1.696,-0.48 -2.784,-0.96 -1.056,-0.512 -1.824,-1.472 -0.736,-0.96 -0.736,-2.496 0,-2.368 1.728,-3.552 1.728,-1.184 4.32,-1.184 1.536,0 3.008,0.448 1.504,0.416 2.592,1.152 z" transform="translate(0 474.4158144586283) translate(534.9288651983331 28.58950029763494) scale(0.8793765896422958) translate(-538.76725 -232.944)"></path>
      <path id="path83652" style="font-style: normal; font-weight: 400; font-size: 32px; line-height: 1; font-family: Montserrat; font-variant-ligatures: none; text-align: center; text-anchor: middle; fill: rgb(0, 0, 0);" d="m 574.40425,250 v -2.368 q -1.888,2.496 -5.92,2.496 -1.76,0 -3.104,-0.672 -1.312,-0.672 -2.048,-1.856 -0.704,-1.184 -0.704,-2.656 0,-2.272 1.664,-3.584 1.696,-1.344 4.704,-1.376 h 5.376 v -0.8 q 0,-1.792 -1.12,-2.752 -1.088,-0.992 -3.2,-0.992 -2.56,0 -5.216,1.824 l -1.248,-2.048 q 1.824,-1.184 3.36,-1.696 1.568,-0.544 3.712,-0.544 3.168,0 4.896,1.568 1.728,1.536 1.76,4.32 l 0.032,11.136 z m -5.312,-2.336 q 2.08,0 3.52,-0.992 1.472,-1.024 1.76,-2.688 v -1.696 h -4.96 q -2.016,0 -3.008,0.608 -0.96,0.608 -0.96,1.92 0,1.312 0.992,2.08 0.992,0.768 2.656,0.768 z" transform="translate(0 474.4158144586283) translate(555.9116700037879 28.6176403485035) scale(0.8793765896422958) translate(-562.62825 -232.976)"></path>
      <path id="path83654" style="font-style: normal; font-weight: 400; font-size: 32px; line-height: 1; font-family: Montserrat; font-variant-ligatures: none; text-align: center; text-anchor: middle; fill: rgb(0, 0, 0);" d="m 592.03875,232.976 q 2.976,0 4.672,1.76 1.696,1.728 1.696,4.8 V 250 h -2.976 v -9.664 q 0,-2.144 -1.216,-3.328 -1.184,-1.216 -3.296,-1.216 -2.272,0.032 -3.712,1.472 -1.408,1.408 -1.6,3.68 V 250 h -2.976 v -16.928 h 2.976 v 3.584 q 1.696,-3.616 6.432,-3.68 z" transform="translate(0 474.4158144586283) translate(573.5014002381079 28.6176403485035) scale(0.8793765896422958) translate(-582.63075 -232.976)"></path>
      <path id="path83656" style="font-style: normal; font-weight: 400; font-size: 32px; line-height: 1; font-family: Montserrat; font-variant-ligatures: none; text-align: center; text-anchor: middle; fill: rgb(0, 0, 0);" d="M 619.46925,226.256 V 250 h -2.976 v -3.36 q -0.96,1.696 -2.592,2.624 -1.6,0.896 -3.744,0.896 -2.4,0 -4.256,-1.088 -1.824,-1.12 -2.848,-3.072 -1.024,-1.984 -1.024,-4.512 0,-2.496 1.024,-4.416 1.024,-1.952 2.848,-3.04 1.856,-1.088 4.224,-1.088 2.176,0 3.808,0.896 1.632,0.896 2.56,2.592 v -10.176 z m -8.704,21.344 q 1.664,0 2.944,-0.768 1.312,-0.768 2.048,-2.144 0.736,-1.376 0.736,-3.104 0,-1.76 -0.736,-3.136 -0.736,-1.376 -2.048,-2.144 -1.28,-0.768 -2.944,-0.768 -1.664,0 -2.976,0.8 -1.28,0.768 -2.016,2.144 -0.736,1.376 -0.736,3.104 0,1.728 0.736,3.104 0.736,1.376 2.016,2.144 1.312,0.768 2.976,0.768 z" transform="translate(0 474.4158144586283) translate(590.559987012284 22.708229666107286) scale(0.8793765896422958) translate(-602.02925 -226.256)"></path>
      <path id="path83658" style="font-style: normal; font-weight: 400; font-size: 32px; line-height: 1; font-family: Montserrat; font-variant-ligatures: none; text-align: center; text-anchor: middle; fill: rgb(0, 0, 0);" d="m 642.90625,248.88 q -1.952,1.248 -3.968,1.248 -2.016,0 -3.264,-1.184 -1.248,-1.216 -1.248,-3.648 v -9.376 h -2.4 v -2.272 h 2.4 v -4.544 h 3.008 v 4.544 h 5.184 v 2.272 h -5.184 v 8.832 q 0,1.408 0.512,2.016 0.512,0.608 1.536,0.608 1.216,0 2.624,-0.8 z" transform="translate(0 474.4158144586283) translate(616.9386465717838 25.212694193408538) scale(0.8793765896422958) translate(-632.02625 -229.104)"></path>
      <path id="path83660" style="font-style: normal; font-weight: 400; font-size: 32px; line-height: 1; font-family: Montserrat; font-variant-ligatures: none; text-align: center; text-anchor: middle; fill: rgb(0, 0, 0);" d="m 653.03975,232.976 q 3.936,0 5.952,2.336 2.016,2.304 2.016,6.432 0,0.64 -0.032,0.96 h -13.376 q 0.352,2.272 1.888,3.616 1.568,1.344 3.84,1.344 1.504,0 2.784,-0.544 1.312,-0.544 2.272,-1.536 l 1.632,1.696 q -1.248,1.344 -3.008,2.08 -1.76,0.736 -3.904,0.736 -2.496,0 -4.448,-1.056 -1.92,-1.088 -3.008,-3.04 -1.056,-1.952 -1.056,-4.448 0,-2.496 1.056,-4.416 1.088,-1.952 3.008,-3.04 1.92,-1.12 4.384,-1.12 z m 5.28,7.424 q -0.128,-2.304 -1.536,-3.616 -1.408,-1.344 -3.712,-1.344 -2.24,0 -3.744,1.344 -1.472,1.344 -1.76,3.616 z" transform="translate(0 474.4158144586283) translate(627.9884531089341 28.6176403485035) scale(0.8793765896422958) translate(-644.59175 -232.976)"></path>
      <path id="path83662" style="font-style: normal; font-weight: 400; font-size: 32px; line-height: 1; font-family: Montserrat; font-variant-ligatures: none; text-align: center; text-anchor: middle; fill: rgb(0, 0, 0);" d="m 676.94025,237.584 q -2.016,-1.952 -4.832,-1.952 -1.664,0 -2.976,0.736 -1.28,0.736 -2.016,2.08 -0.736,1.344 -0.736,3.104 0,1.76 0.704,3.104 0.736,1.344 1.984,2.112 1.28,0.736 2.912,0.736 1.632,0 2.944,-0.544 1.312,-0.544 2.176,-1.568 l 1.696,1.728 q -1.152,1.44 -2.944,2.208 -1.76,0.768 -4,0.768 -2.464,0 -4.384,-1.088 -1.92,-1.088 -3.008,-3.008 -1.056,-1.952 -1.056,-4.448 0,-2.496 1.056,-4.448 1.088,-1.952 3.008,-3.04 1.92,-1.088 4.384,-1.088 2.144,0 3.84,0.672 1.728,0.64 2.88,1.888 z" transform="translate(0 474.4158144586283) translate(644.5317252015798 28.6176403485035) scale(0.8793765896422958) translate(-663.40425 -232.976)"></path>
      <path id="path83664" style="font-style: normal; font-weight: 400; font-size: 32px; line-height: 1; font-family: Montserrat; font-variant-ligatures: none; text-align: center; text-anchor: middle; fill: rgb(0, 0, 0);" d="m 692.66825,232.976 q 2.976,0 4.672,1.76 1.696,1.728 1.696,4.8 V 250 h -2.976 v -9.664 q 0,-2.144 -1.216,-3.328 -1.184,-1.216 -3.296,-1.216 -2.464,0.032 -3.904,1.664 -1.44,1.632 -1.44,4.224 V 250 h -2.976 v -23.744 h 2.976 v 10.464 q 1.696,-3.68 6.464,-3.744 z" transform="translate(0 474.4158144586283) translate(661.9644867146486 22.708229666107286) scale(0.8793765896422958) translate(-683.22825 -226.256)"></path>
      <path id="path83666" style="font-style: normal; font-weight: 400; font-size: 32px; line-height: 1; font-family: Montserrat; font-variant-ligatures: none; text-align: center; text-anchor: middle; fill: rgb(0, 0, 0);" d="m 713.72625,232.976 q 2.976,0 4.672,1.76 1.696,1.728 1.696,4.8 V 250 h -2.976 v -9.664 q 0,-2.144 -1.216,-3.328 -1.184,-1.216 -3.296,-1.216 -2.272,0.032 -3.712,1.472 -1.408,1.408 -1.6,3.68 V 250 h -2.976 v -16.928 h 2.976 v 3.584 q 1.696,-3.616 6.432,-3.68 z" transform="translate(0 474.4158144586283) translate(680.5105389902047 28.6176403485035) scale(0.8793765896422958) translate(-704.31825 -232.976)"></path>
      <path id="path83668" style="font-style: normal; font-weight: 400; font-size: 32px; line-height: 1; font-family: Montserrat; font-variant-ligatures: none; text-align: center; text-anchor: middle; fill: rgb(0, 0, 0);" d="m 732.42075,232.976 q 2.528,0 4.48,1.088 1.984,1.088 3.072,3.04 1.12,1.92 1.12,4.416 0,2.496 -1.12,4.448 -1.088,1.952 -3.072,3.04 -1.952,1.088 -4.48,1.088 -2.56,0 -4.544,-1.088 -1.952,-1.088 -3.072,-3.008 -1.088,-1.952 -1.088,-4.48 0,-2.496 1.088,-4.416 1.12,-1.952 3.072,-3.04 1.984,-1.088 4.544,-1.088 z m 0,2.592 q -1.664,0 -2.976,0.768 -1.28,0.768 -2.016,2.144 -0.704,1.344 -0.704,3.072 0,1.76 0.704,3.136 0.736,1.376 2.016,2.144 1.312,0.736 2.976,0.736 1.632,0 2.912,-0.736 1.312,-0.768 2.016,-2.144 0.736,-1.376 0.736,-3.136 0,-1.728 -0.736,-3.072 -0.704,-1.376 -2.016,-2.144 -1.28,-0.768 -2.912,-0.768 z" transform="translate(0 474.4158144586283) translate(697.5691257643808 28.6176403485035) scale(0.8793765896422958) translate(-723.71675 -232.976)"></path>
      <path id="path83670" style="font-style: normal; font-weight: 400; font-size: 32px; line-height: 1; font-family: Montserrat; font-variant-ligatures: none; text-align: center; text-anchor: middle; fill: rgb(0, 0, 0);" d="m 745.41575,226.256 h 2.976 V 250 h -2.976 z" transform="translate(0 474.4158144586283) translate(716.6507183830289 22.708229666107286) scale(0.8793765896422958) translate(-745.41575 -226.256)"></path>
      <path id="path83672" style="font-style: normal; font-weight: 400; font-size: 32px; line-height: 1; font-family: Montserrat; font-variant-ligatures: none; text-align: center; text-anchor: middle; fill: rgb(0, 0, 0);" d="m 761.42075,232.976 q 2.528,0 4.48,1.088 1.984,1.088 3.072,3.04 1.12,1.92 1.12,4.416 0,2.496 -1.12,4.448 -1.088,1.952 -3.072,3.04 -1.952,1.088 -4.48,1.088 -2.56,0 -4.544,-1.088 -1.952,-1.088 -3.072,-3.008 -1.088,-1.952 -1.088,-4.48 0,-2.496 1.088,-4.416 1.12,-1.952 3.072,-3.04 1.984,-1.088 4.544,-1.088 z m 0,2.592 q -1.664,0 -2.976,0.768 -1.28,0.768 -2.016,2.144 -0.704,1.344 -0.704,3.072 0,1.76 0.704,3.136 0.736,1.376 2.016,2.144 1.312,0.736 2.976,0.736 1.632,0 2.912,-0.736 1.312,-0.768 2.016,-2.144 0.736,-1.376 0.736,-3.136 0,-1.728 -0.736,-3.072 -0.704,-1.376 -2.016,-2.144 -1.28,-0.768 -2.912,-0.768 z" transform="translate(0 474.4158144586283) translate(723.0710468640074 28.6176403485035) scale(0.8793765896422958) translate(-752.71675 -232.976)"></path>
      <path id="path83674" style="font-style: normal; font-weight: 400; font-size: 32px; line-height: 1; font-family: Montserrat; font-variant-ligatures: none; text-align: center; text-anchor: middle; fill: rgb(0, 0, 0);" d="m 789.23175,233.072 v 15.2 q 0,2.432 -1.088,4.256 -1.056,1.824 -3.008,2.784 -1.952,0.992 -4.544,0.992 -3.744,0 -6.976,-2.368 l 1.312,-2.176 q 1.248,1.024 2.592,1.504 1.344,0.512 2.944,0.512 2.624,0 4.192,-1.472 1.568,-1.472 1.568,-3.936 V 246 q -0.896,1.536 -2.432,2.4 -1.536,0.832 -3.52,0.832 -2.272,0 -4.032,-1.024 -1.728,-1.056 -2.688,-2.912 -0.96,-1.856 -0.96,-4.256 0,-2.368 0.96,-4.192 0.96,-1.824 2.688,-2.848 1.76,-1.024 4.032,-1.024 2.016,0 3.52,0.832 1.536,0.832 2.432,2.368 v -3.104 z m -8.384,13.76 q 1.568,0 2.784,-0.736 1.216,-0.736 1.888,-2.016 0.704,-1.312 0.704,-2.944 0,-1.664 -0.704,-2.944 -0.672,-1.312 -1.888,-2.048 -1.216,-0.736 -2.784,-0.736 -1.568,0 -2.816,0.736 -1.216,0.736 -1.92,2.048 -0.704,1.28 -0.704,2.944 0.032,2.496 1.536,4.096 1.504,1.6 3.904,1.6 z" transform="translate(0 474.4158144586283) translate(740.5486565831479 28.6176403485035) scale(0.8793765896422958) translate(-772.59175 -232.976)"></path>
      <path id="path83676" style="font-style: normal; font-weight: 400; font-size: 32px; line-height: 1; font-family: Montserrat; font-variant-ligatures: none; text-align: center; text-anchor: middle; fill: rgb(0, 0, 0);" d="m 800.61325,252.4 q -0.8,1.952 -2.144,2.944 -1.312,0.992 -3.104,0.992 -1.088,0 -1.984,-0.32 -0.896,-0.32 -1.728,-0.992 l 1.28,-2.336 q 1.12,0.8 2.272,0.8 1.92,0 2.88,-2.176 l 0.64,-1.504 -7.008,-16.736 h 3.136 l 5.376,13.568 5.088,-13.568 h 3.04 z" transform="translate(0 474.4158144586283) translate(757.3108934466145 28.702060501109173) scale(0.8793765896422958) translate(-791.65325 -233.072)"></path>
    </g>
  </g>
</svg>