<?xml version="1.0" encoding="UTF-8" standalone="no"?>
<svg
   xmlns:dc="http://purl.org/dc/elements/1.1/"
   xmlns:cc="http://creativecommons.org/ns#"
   xmlns:rdf="http://www.w3.org/1999/02/22-rdf-syntax-ns#"
   xmlns:svg="http://www.w3.org/2000/svg"
   xmlns="http://www.w3.org/2000/svg"
   xmlns:xlink="http://www.w3.org/1999/xlink"
   xmlns:sodipodi="http://sodipodi.sourceforge.net/DTD/sodipodi-0.dtd"
   xmlns:inkscape="http://www.inkscape.org/namespaces/inkscape"
   inkscape:version="1.0 (4035a4fb49, 2020-05-01)"
   sodipodi:docname="dawglogo.svg"
   id="svg204"
   class="el-tooltip"
   color-interpolation-filters="sRGB"
   preserveAspectRatio="xMidYMid meet"
   viewBox="0 0 245 90"
   height="90"
   width="245"
   version="1.0"
   data-v-913f40ec="">
  <metadata
     id="metadata210">
    <rdf:RDF>
      <cc:Work
         rdf:about="">
        <dc:format>image/svg+xml</dc:format>
        <dc:type
           rdf:resource="http://purl.org/dc/dcmitype/StillImage" />
        <dc:title></dc:title>
      </cc:Work>
    </rdf:RDF>
  </metadata>
  <defs
     id="defs208" />
  <sodipodi:namedview
     inkscape:pagecheckerboard="false"
     inkscape:current-layer="svg204"
     inkscape:window-maximized="1"
     inkscape:window-y="-11"
     inkscape:window-x="-11"
     inkscape:cy="99.233171"
     inkscape:cx="170"
     inkscape:zoom="3.064"
     showgrid="false"
     id="namedview206"
     inkscape:window-height="986"
     inkscape:window-width="1920"
     inkscape:pageshadow="2"
     inkscape:pageopacity="0"
     guidetolerance="10"
     gridtolerance="10"
     objecttolerance="10"
     borderopacity="1"
     bordercolor="#666666"
     pagecolor="#ffffff" />
  <rect
     id="rect151"
     class="watermarklayer"
     fill-opacity="1"
     fill="url(#watermark)"
     height="100%"
     width="100%"
     y="0"
     x="0"
     data-v-913f40ec="" />
  <g
     id="g202"
     transform="matrix(1.1354157,0,0,1.1371843,0,5.9235541)"
     class="iconlinesvg-g iconlinesvg"
     fill="#333333"
     data-v-913f40ec="">
    <g
       id="g190"
       class="tp-name">
      <g
         id="g157"
         transform="translate(0,4.355)">
        <g
           id="g155"
           fill="#333333">
          <path
             id="path153"
             transform="translate(-4.875,42.38)"
             d="m 10.08,-15.99 c 0,5.27 0.06,9.68 -0.33,12.09 -0.2,1.43 -0.58,2.8 -1.69,2.99 -0.52,0.13 -0.98,0.19 -1.49,0.19 -0.53,0 -0.72,0.26 -0.72,0.46 0,0.33 0.32,0.46 0.91,0.46 0.98,0 2.53,-0.13 3.77,-0.13 C 11.77,0 12.61,0 12.74,0 c 0.2,0 2.21,0.2 4.68,0.33 2.47,0.19 5.65,0.32 8.13,0.32 9.88,0 14.82,-3.84 17.35,-6.37 3.19,-3.25 6.18,-8.65 6.18,-15.53 0,-6.57 -2.67,-11.12 -5.53,-13.98 -6.89,-6.96 -17.55,-6.37 -23.27,-6.37 -3.64,0 -7.02,0.19 -7.48,0.19 -0.19,0 -4.28,-0.19 -6.95,-0.19 -0.58,0 -0.97,0.13 -0.97,0.52 0,0.2 0.32,0.39 0.65,0.39 0.51,0 1.49,0.06 1.88,0.13 1.88,0.39 2.4,1.3 2.54,3.05 0.13,1.7 0.13,3.32 0.13,11.9 z m 5.33,-10.66 c 0,-3.9 0,-9.43 0.06,-11.31 0,-0.59 0.2,-0.84 0.72,-1.11 0.38,-0.26 2.4,-0.45 3.31,-0.45 6.44,0 12.8,0.65 18.33,6.18 2.21,2.14 5.59,6.63 5.59,13.97 0,5.2 -1.37,10.08 -4.22,12.93 -3.39,3.38 -8.19,5.08 -13.52,5.08 -6.77,0 -8.84,-1.37 -9.56,-2.47 -0.45,-0.59 -0.58,-2.34 -0.65,-4.36 0,-0.98 -0.06,-6.05 -0.06,-11.9 z" />
        </g>
      </g>
      <g
         id="g176"
         transform="translate(48.2)">
        <g
           id="g174"
           class="imagesvg">
          <rect
             id="rect159"
             class="image-rect"
             height="52.089657"
             width="52.089657"
             y="0"
             x="0"
             stroke-width="2"
             fill-opacity="0"
             fill="#333333" />
          <image
             id="image161"
             class="imagesvg-image"
             filtersec="colorsf9912121609"
             height="52.089657"
             width="52.089657"
             y="0"
             x="0"
             xlink:href="https://static.thenounproject.com/png/1362105-200.png"
             filter="url(#colors5602863558)" />
          <defs
             id="defs172">
            <filter
               id="colors5602863558">
              <feColorMatrix
                 id="feColorMatrix163"
                 class="icon-fecolormatrix"
                 values="0 0 0 0 0.19921875  0 0 0 0 0.19921875  0 0 0 0 0.19921875  0 0 0 1 0"
                 type="matrix" />
            </filter>
            <filter
               id="colorsf9912121609">
              <feColorMatrix
                 id="feColorMatrix166"
                 class="icon-fecolormatrix"
                 values="0 0 0 0 0.99609375  0 0 0 0 0.99609375  0 0 0 0 0.99609375  0 0 0 1 0"
                 type="matrix" />
            </filter>
            <filter
               id="colorsb8940758212">
              <feColorMatrix
                 id="feColorMatrix169"
                 class="icon-fecolormatrix"
                 values="0 0 0 0 0  0 0 0 0 0  0 0 0 0 0  0 0 0 1 0"
                 type="matrix" />
            </filter>
          </defs>
        </g>
      </g>
      <g
         id="g182"
         transform="translate(104.2,4.355)">
        <g
           id="g180"
           fill="#333333">
          <path
             id="path178"
             transform="translate(0.845,42.38)"
             d="m 15.47,-4.03 c 1.3,4.1 1.62,4.94 2.28,4.94 0.58,0 1.04,-0.78 2.01,-3.32 1.95,-4.94 9.81,-24.57 11.9,-29.64 l 11.18,29.64 c 0.84,2.41 1.23,3.32 1.88,3.32 0.52,0 0.98,-0.91 2.67,-5.46 1.95,-5.4 7.73,-22.82 10.27,-29.83 1.04,-2.93 1.68,-5.66 3.64,-6.12 0.65,-0.13 1.49,-0.19 1.68,-0.19 0.53,0 0.85,-0.19 0.85,-0.52 0,-0.2 -0.26,-0.39 -0.78,-0.39 -1.75,0 -4.94,0.19 -5.33,0.19 -0.45,0 -3.06,-0.19 -5.46,-0.19 -0.71,0 -0.97,0.13 -0.97,0.39 0,0.26 0.26,0.52 0.84,0.52 2.8,0 3.12,0.71 3.12,1.69 0,0.71 -0.06,1.04 -0.52,2.73 -1.75,6.43 -7.21,22.94 -8.78,28.27 l -11.5,-30.55 c -0.78,-2.08 -1.11,-2.86 -1.56,-2.86 -0.33,0 -0.65,0.33 -1.56,2.8 L 19.3,-8.06 c -0.97,-3.12 -6.56,-22.42 -7.41,-25.94 -0.58,-2.47 -1.1,-4.29 -1.1,-5 0,-0.65 0.07,-1.17 0.65,-1.37 0.72,-0.26 1.63,-0.26 2.08,-0.26 0.52,0 0.91,-0.13 0.91,-0.52 0,-0.19 -0.13,-0.45 -0.91,-0.45 -3.06,0 -5.91,0.19 -6.37,0.19 -0.65,0 -3.64,-0.19 -7.02,-0.19 -0.65,0 -0.97,0.13 -0.97,0.39 0,0.39 0.45,0.52 0.77,0.52 0.46,0 1.63,0.06 2.34,0.26 1.82,0.52 2.28,1.49 3.19,4.35 z" />
        </g>
      </g>
      <g
         id="g188"
         transform="translate(172.875,4.355)">
        <g
           id="g186"
           fill="#333333">
          <path
             id="path184"
             transform="translate(-3.575,42.38)"
             d="m 42.38,-10.46 c 0,-2.34 0,-3.97 0.13,-5.86 0.13,-1.88 0.52,-3.05 2.08,-3.25 0.52,-0.06 0.65,-0.06 1.11,-0.06 0.58,0 0.78,-0.26 0.78,-0.46 0,-0.32 -0.26,-0.45 -0.91,-0.45 -1.76,0 -5.59,0.13 -5.85,0.13 -0.27,0 -4.03,-0.13 -6.63,-0.13 -0.72,0 -0.98,0.13 -0.98,0.45 0,0.2 0.26,0.46 0.78,0.46 0.52,0 1.17,0.06 1.56,0.13 2.28,0.32 2.6,1.17 2.6,5.46 v 9.36 c 0,0.91 -0.46,1.56 -1.1,1.95 -1.5,0.78 -4.36,1.1 -6.18,1.1 -5.65,0 -10.47,-1.88 -14.75,-6.04 -1.69,-1.62 -5.92,-7.35 -5.92,-15.08 0,-6.44 2.15,-11.38 5.46,-13.91 4.35,-3.32 8.45,-3.45 11.96,-3.45 7.28,0 11.96,2.41 13.46,4.56 0.97,1.42 1.23,3.44 1.23,4.02 0.06,0.39 0.13,0.78 0.45,0.78 0.46,0 0.53,-0.26 0.53,-1.17 0,-5.71 0.45,-7.67 0.45,-8.45 0,-0.26 0,-0.51 -0.52,-0.51 -1.36,-0.07 -3.9,-0.39 -4.94,-0.59 -2.34,-0.39 -5.13,-0.91 -9.29,-0.91 -3.97,0 -9.5,0.39 -14.5,3.31 -5.33,3.19 -9.81,9.5 -9.81,18.34 0,7.4 3.5,12.86 7.02,15.79 6.63,5.52 14.81,5.85 19.04,5.85 3.19,0 8.38,-0.65 11.96,-2.47 0.72,-0.39 0.78,-0.46 0.78,-3.06 z" />
        </g>
      </g>
    </g>
    <g
       id="g200"
       transform="translate(0,65.089657)"
       fill="#333333"
       class="tp-slogan"
       hollow-target="custom"
       fill-rule="">
      <rect
         id="rect192"
         width="18.862495"
         y="3.9200001"
         height="1"
         x="0" />
      <rect
         id="rect194"
         x="196.91251"
         width="18.862495"
         y="3.9200001"
         height="1" />
      <g
         id="g198"
         transform="translate(21.862495)">
        <path
           id="path196"
           transform="translate(-0.676,8.684)"
           d="m 4.32,0.16 v 0 Q 3.51,0.16 2.84,-0.16 2.17,-0.47 1.69,-1.05 1.21,-1.63 0.94,-2.45 0.68,-3.28 0.68,-4.3 v 0 q 0,-1.03 0.26,-1.84 0.27,-0.82 0.75,-1.38 0.48,-0.57 1.15,-0.87 0.67,-0.29 1.48,-0.29 v 0 q 0.8,0 1.47,0.3 0.67,0.31 1.16,0.87 0.49,0.57 0.75,1.38 0.27,0.81 0.27,1.83 v 0 q 0,1.02 -0.27,1.85 -0.26,0.82 -0.75,1.4 -0.49,0.58 -1.16,0.89 -0.67,0.32 -1.47,0.32 z m 0,-0.95 v 0 q 0.57,0 1.03,-0.25 0.46,-0.25 0.79,-0.71 0.33,-0.46 0.52,-1.1 0.18,-0.65 0.18,-1.45 v 0 Q 6.84,-5.1 6.66,-5.73 6.47,-6.37 6.14,-6.81 5.81,-7.25 5.35,-7.49 4.89,-7.74 4.32,-7.74 v 0 q -0.58,0 -1.04,0.25 -0.46,0.24 -0.79,0.68 -0.33,0.44 -0.51,1.08 -0.19,0.63 -0.19,1.43 v 0 q 0,0.8 0.19,1.45 0.18,0.64 0.51,1.1 0.33,0.46 0.79,0.71 0.46,0.25 1.04,0.25 z M 9.8,0 v -8.53 h 1.12 l 3.08,5.36 0.92,1.77 h 0.06 q -0.04,-0.65 -0.09,-1.35 -0.04,-0.7 -0.04,-1.37 v 0 -4.41 h 1.02 V 0 h -1.11 l -3.1,-5.37 -0.92,-1.75 h -0.05 q 0.05,0.65 0.09,1.32 0.05,0.66 0.05,1.34 v 0 V 0 Z m 11.04,0 v -8.53 h 1.08 v 3.58 h 3.96 v -3.58 h 1.1 V 0 h -1.1 V -4.02 H 21.92 V 0 Z m 8.44,-3.52 v -5.01 h 1.08 v 5.03 q 0,0.77 0.15,1.29 0.16,0.52 0.42,0.83 0.27,0.31 0.63,0.45 0.37,0.14 0.78,0.14 v 0 q 0.43,0 0.8,-0.14 0.36,-0.14 0.63,-0.45 0.28,-0.31 0.43,-0.83 0.16,-0.52 0.16,-1.29 v 0 -5.03 h 1.04 v 5.01 q 0,1.02 -0.23,1.73 -0.24,0.7 -0.65,1.13 -0.41,0.44 -0.97,0.63 -0.56,0.19 -1.21,0.19 v 0 q -0.65,0 -1.21,-0.19 -0.57,-0.19 -0.98,-0.63 -0.41,-0.43 -0.64,-1.13 -0.23,-0.71 -0.23,-1.73 z M 37.7,0 v -8.53 h 1.27 l 1.66,4.58 0.62,1.74 h 0.05 l 0.6,-1.74 1.64,-4.58 h 1.27 V 0 h -1.03 v -4.69 q 0,-0.58 0.05,-1.26 0.05,-0.69 0.1,-1.27 v 0 h -0.05 l -0.69,1.9 -1.64,4.46 h -0.61 l -1.65,-4.46 -0.68,-1.9 h -0.05 q 0.04,0.58 0.09,1.27 0.05,0.68 0.05,1.26 v 0 V 0 Z m 10.52,-3.47 h 2.56 l -0.4,-1.3 q -0.24,-0.72 -0.45,-1.42 -0.2,-0.71 -0.41,-1.45 v 0 h -0.05 q -0.2,0.74 -0.41,1.45 -0.21,0.7 -0.44,1.42 v 0 z M 51.86,0 51.05,-2.6 H 47.94 L 47.13,0 h -1.11 l 2.89,-8.53 h 1.22 L 53.01,0 Z m 2.36,0 v -8.53 h 1.12 l 3.08,5.36 0.93,1.77 h 0.05 q -0.04,-0.65 -0.09,-1.35 -0.04,-0.7 -0.04,-1.37 v 0 -4.41 h 1.02 V 0 h -1.11 l -3.1,-5.37 -0.92,-1.75 h -0.05 q 0.05,0.65 0.09,1.32 0.05,0.66 0.05,1.34 v 0 V 0 Z m 7.79,-1.11 0.65,-0.75 q 0.46,0.48 1.07,0.77 0.62,0.3 1.28,0.3 v 0 q 0.85,0 1.32,-0.39 0.46,-0.38 0.46,-1 v 0 q 0,-0.33 -0.11,-0.56 -0.11,-0.22 -0.3,-0.39 -0.18,-0.16 -0.44,-0.29 -0.26,-0.13 -0.56,-0.27 v 0 l -1.22,-0.54 q -0.3,-0.13 -0.62,-0.31 -0.31,-0.18 -0.55,-0.44 -0.25,-0.26 -0.41,-0.62 -0.15,-0.35 -0.15,-0.82 v 0 q 0,-0.48 0.2,-0.9 0.2,-0.42 0.56,-0.72 0.35,-0.31 0.84,-0.48 0.49,-0.16 1.07,-0.16 v 0 q 0.77,0 1.42,0.29 0.65,0.29 1.11,0.76 v 0 l -0.59,0.7 Q 66.65,-7.31 66.18,-7.52 65.7,-7.74 65.1,-7.74 v 0 q -0.71,0 -1.15,0.34 -0.43,0.33 -0.43,0.91 v 0 q 0,0.31 0.12,0.53 0.13,0.21 0.33,0.38 0.21,0.16 0.46,0.28 0.25,0.13 0.51,0.23 v 0 l 1.2,0.52 q 0.37,0.16 0.69,0.36 0.33,0.2 0.56,0.47 0.24,0.26 0.37,0.62 0.14,0.36 0.14,0.82 v 0 q 0,0.51 -0.2,0.95 -0.2,0.45 -0.58,0.78 -0.38,0.33 -0.91,0.52 Q 65.68,0.16 65,0.16 v 0 q -0.9,0 -1.66,-0.34 -0.77,-0.34 -1.33,-0.93 z m 11.26,-2.36 h 2.56 l -0.4,-1.3 q -0.24,-0.72 -0.45,-1.42 -0.2,-0.71 -0.41,-1.45 v 0 h -0.05 q -0.2,0.74 -0.41,1.45 -0.2,0.7 -0.44,1.42 v 0 z M 76.91,0 76.1,-2.6 H 73 L 72.18,0 h -1.11 l 2.89,-8.53 h 1.22 L 78.07,0 Z m 2.36,0 v -8.53 h 1.12 l 3.08,5.36 0.93,1.77 h 0.05 q -0.04,-0.65 -0.09,-1.35 -0.04,-0.7 -0.04,-1.37 v 0 -4.41 h 1.03 V 0 h -1.12 l -3.1,-5.37 -0.92,-1.75 h -0.05 q 0.05,0.65 0.1,1.32 0.04,0.66 0.04,1.34 v 0 V 0 Z m 8.42,0 v -8.53 h 2.13 q 1.97,0 3,1.09 1.03,1.1 1.03,3.14 v 0 q 0,1.01 -0.26,1.81 -0.26,0.8 -0.77,1.35 -0.51,0.55 -1.25,0.85 Q 90.83,0 89.87,0 v 0 z m 1.07,-0.88 h 0.98 q 1.49,0 2.24,-0.9 0.75,-0.9 0.75,-2.52 v 0 q 0,-1.63 -0.75,-2.49 -0.75,-0.85 -2.24,-0.85 v 0 H 88.76 Z M 100.07,0 V -7.62 H 97.5 v -0.91 h 6.24 v 0.91 h -2.57 V 0 Z m 5.2,0 v -8.53 h 4.92 v 0.91 h -3.84 v 2.68 h 3.24 v 0.92 h -3.24 v 3.1 h 3.97 V 0 Z m 6.36,-4.26 v 0 q 0,-1.03 0.29,-1.85 0.28,-0.82 0.79,-1.39 0.51,-0.57 1.2,-0.88 0.7,-0.3 1.52,-0.3 v 0 q 0.78,0 1.36,0.31 0.59,0.32 0.96,0.74 v 0 l -0.61,0.69 q -0.33,-0.37 -0.74,-0.58 -0.41,-0.22 -0.96,-0.22 v 0 q -0.61,0 -1.1,0.25 -0.5,0.24 -0.85,0.68 -0.35,0.45 -0.55,1.09 -0.19,0.64 -0.19,1.43 v 0 q 0,0.81 0.19,1.45 0.19,0.64 0.52,1.1 0.34,0.45 0.83,0.7 0.49,0.25 1.1,0.25 v 0 q 0.62,0 1.08,-0.25 0.47,-0.25 0.88,-0.7 v 0 l 0.61,0.66 q -0.5,0.59 -1.14,0.91 -0.64,0.33 -1.46,0.33 v 0 q -0.8,0 -1.49,-0.3 -0.68,-0.3 -1.18,-0.87 -0.5,-0.56 -0.78,-1.39 -0.28,-0.82 -0.28,-1.86 z M 119.55,0 v -8.53 h 1.08 v 3.58 h 3.96 v -3.58 h 1.09 V 0 h -1.09 v -4.02 h -3.96 V 0 Z m 8.47,0 v -8.53 h 1.12 l 3.08,5.36 0.93,1.77 h 0.05 q -0.04,-0.65 -0.09,-1.35 -0.04,-0.7 -0.04,-1.37 v 0 -4.41 h 1.03 V 0 h -1.12 l -3.1,-5.37 -0.92,-1.75 h -0.05 q 0.05,0.65 0.1,1.32 0.04,0.66 0.04,1.34 v 0 V 0 Z m 11.56,0.16 v 0 q -0.8,0 -1.47,-0.32 -0.67,-0.31 -1.15,-0.89 -0.49,-0.58 -0.75,-1.4 -0.27,-0.83 -0.27,-1.85 v 0 q 0,-1.03 0.27,-1.84 0.26,-0.82 0.75,-1.38 0.48,-0.57 1.15,-0.87 0.67,-0.29 1.47,-0.29 v 0 q 0.81,0 1.48,0.3 0.67,0.31 1.15,0.87 0.49,0.57 0.76,1.38 0.26,0.81 0.26,1.83 v 0 q 0,1.02 -0.26,1.85 -0.27,0.82 -0.76,1.4 -0.48,0.58 -1.15,0.89 -0.67,0.32 -1.48,0.32 z m 0,-0.95 v 0 q 0.57,0 1.03,-0.25 0.47,-0.25 0.8,-0.71 0.33,-0.46 0.51,-1.1 0.18,-0.65 0.18,-1.45 v 0 q 0,-0.8 -0.18,-1.43 -0.18,-0.64 -0.51,-1.08 -0.33,-0.44 -0.8,-0.68 -0.46,-0.25 -1.03,-0.25 v 0 q -0.57,0 -1.03,0.25 -0.46,0.24 -0.8,0.68 -0.33,0.44 -0.51,1.08 -0.18,0.63 -0.18,1.43 v 0 q 0,0.8 0.18,1.45 0.18,0.64 0.51,1.1 0.34,0.46 0.8,0.71 0.46,0.25 1.03,0.25 z M 145.07,0 v -8.53 h 1.08 v 7.61 h 3.73 V 0 Z m 9.12,0.16 v 0 q -0.8,0 -1.47,-0.32 -0.67,-0.31 -1.15,-0.89 -0.48,-0.58 -0.75,-1.4 -0.27,-0.83 -0.27,-1.85 v 0 q 0,-1.03 0.27,-1.84 0.27,-0.82 0.75,-1.38 0.48,-0.57 1.15,-0.87 0.67,-0.29 1.47,-0.29 v 0 q 0.81,0 1.48,0.3 0.67,0.31 1.16,0.87 0.48,0.57 0.75,1.38 0.27,0.81 0.27,1.83 v 0 q 0,1.02 -0.27,1.85 -0.27,0.82 -0.75,1.4 -0.49,0.58 -1.16,0.89 -0.67,0.32 -1.48,0.32 z m 0,-0.95 v 0 q 0.58,0 1.04,-0.25 0.46,-0.25 0.79,-0.71 0.33,-0.46 0.51,-1.1 0.19,-0.65 0.19,-1.45 v 0 q 0,-0.8 -0.19,-1.43 -0.18,-0.64 -0.51,-1.08 -0.33,-0.44 -0.79,-0.68 -0.46,-0.25 -1.04,-0.25 v 0 q -0.57,0 -1.03,0.25 -0.46,0.24 -0.79,0.68 -0.33,0.44 -0.52,1.08 -0.18,0.63 -0.18,1.43 v 0 q 0,0.8 0.18,1.45 0.19,0.64 0.52,1.1 0.33,0.46 0.79,0.71 0.46,0.25 1.03,0.25 z m 5,-3.47 v 0 q 0,-1.03 0.29,-1.85 0.29,-0.82 0.82,-1.39 0.52,-0.57 1.24,-0.88 0.71,-0.3 1.57,-0.3 v 0 q 0.89,0 1.48,0.33 0.59,0.33 0.97,0.72 v 0 l -0.62,0.69 q -0.32,-0.34 -0.74,-0.57 -0.43,-0.23 -1.08,-0.23 v 0 q -0.65,0 -1.17,0.25 -0.52,0.24 -0.88,0.68 -0.36,0.45 -0.57,1.09 -0.2,0.64 -0.2,1.43 v 0 q 0,0.81 0.19,1.45 0.19,0.64 0.55,1.1 0.36,0.45 0.88,0.7 0.53,0.25 1.22,0.25 v 0 q 0.45,0 0.86,-0.14 0.41,-0.14 0.67,-0.37 v 0 -2.22 h -1.81 v -0.9 h 2.8 v 3.59 q -0.42,0.43 -1.1,0.71 -0.68,0.28 -1.54,0.28 v 0 q -0.84,0 -1.55,-0.3 -0.7,-0.3 -1.21,-0.87 -0.5,-0.56 -0.79,-1.39 -0.28,-0.82 -0.28,-1.86 z M 169.08,0 v -3.3 l -2.56,-5.23 h 1.15 l 1.11,2.41 q 0.21,0.46 0.4,0.92 0.2,0.45 0.42,0.94 v 0 h 0.05 q 0.22,-0.49 0.44,-0.94 0.22,-0.46 0.42,-0.92 v 0 l 1.09,-2.41 h 1.13 l -2.56,5.23 V 0 Z" />
      </g>
    </g>
  </g>
</svg>
