<svg xmlns:dc="http://purl.org/dc/elements/1.1/" xmlns:cc="http://creativecommons.org/ns#" xmlns:rdf="http://www.w3.org/1999/02/22-rdf-syntax-ns#" xmlns:svg="http://www.w3.org/2000/svg" xmlns="http://www.w3.org/2000/svg" xmlns:xlink="http://www.w3.org/1999/xlink" id="svg57986" viewBox="0 0 1024 768" height="768px" width="1024px" version="1.1">
  <metadata id="metadata57992">
    <rdf:rdf>
      <cc:work rdf:about="">
        <dc:format>image/svg+xml</dc:format>
        <dc:type rdf:resource="http://purl.org/dc/dcmitype/StillImage"></dc:type>
      </cc:work>
    </rdf:rdf>
  </metadata>
  <defs id="defs57990"></defs>
  <g id="logo-group">
    <image xlink:href="../nounpreview/965226.png" id="icon" width="200" height="200" x="412" y="0" style="display: none;"></image>
    <g id="title" style="font-style:normal;font-weight:300;font-size:72px;line-height:1;font-family:'Montserrat Light Alt1';font-variant-ligatures:none;text-align:center;text-anchor:middle">
      <path id="path57994" style="font-style: normal; font-weight: 300; font-size: 72px; line-height: 1; font-family: &quot;Montserrat Light Alt1&quot;; font-variant-ligatures: none; text-align: center; text-anchor: middle; fill: rgb(51, 51, 51);" d="m 505.0655,-38.16 c -2.304,-3.816 -5.472,-6.768 -9.504,-9 -4.032,-2.16 -8.712,-3.24 -13.896,-3.24 h -19.944 v 3.312 h 19.656 c 4.608,0 8.712,0.936 12.312,2.808 3.528,1.872 6.264,4.464 8.208,7.704 1.872,3.312 2.88,7.128 2.88,11.376 0,4.32 -1.008,8.064 -2.88,11.376 -1.944,3.312 -4.68,5.904 -8.208,7.776 -3.6,1.872 -7.704,2.736 -12.312,2.736 h -15.984 V -25.2 h -3.672 V 0 h 19.944 c 5.184,0 9.864,-1.08 13.896,-3.24 4.032,-2.16 7.2,-5.112 9.504,-8.928 2.232,-3.816 3.384,-8.136 3.384,-13.032 0,-4.824 -1.152,-9.144 -3.384,-12.96 z" transform="translate(0 387.711885054861) translate(252 -152.75778304180932) scale(5.022971885750185) translate(-461.7215 50.4)"></path>
      <path id="path57996" style="font-style: normal; font-weight: 300; font-size: 72px; line-height: 1; font-family: &quot;Montserrat Light Alt1&quot;; font-variant-ligatures: none; text-align: center; text-anchor: middle; fill: rgb(51, 51, 51);" d="m 562.24587,-50.4 h -3.67199 v 23.184 h -33.696 V -50.4 h -3.67201 V 0 h 3.67201 v -23.976 h 33.696 V 0 h 3.67199 z" transform="translate(0 387.711885054861) translate(565.8572338088123 -152.75778304180932) scale(5.022971885750185) translate(-521.20587 50.4)"></path>
    </g>
    <g id="tagline" style="font-style:normal;font-weight:400;font-size:32px;line-height:1;font-family:Montserrat;font-variant-ligatures:none;text-align:center;text-anchor:middle">
      <path id="path57999" style="font-style: normal; font-weight: 400; font-size: 32px; line-height: 1; font-family: Montserrat; font-variant-ligatures: none; text-align: center; text-anchor: middle; fill: rgb(51, 51, 51);" d="M 234.46925,-23.744 V 0 h -2.976 v -3.36 q -0.96,1.696 -2.592,2.624 -1.6,0.896 -3.744,0.896 -2.4,0 -4.256,-1.088 -1.824,-1.12 -2.848,-3.072 -1.024,-1.984 -1.024,-4.512 0,-2.496 1.024,-4.416 1.024,-1.952 2.848,-3.04 1.856,-1.088 4.224,-1.088 2.176,0 3.808,0.896 1.632,0.896 2.56,2.592 v -10.176 z m -8.704,21.344 q 1.664,0 2.944,-0.768 1.312,-0.768 2.048,-2.144 0.736,-1.376 0.736,-3.104 0,-1.76 -0.736,-3.136 -0.736,-1.376 -2.048,-2.144 -1.28,-0.768 -2.944,-0.768 -1.664,0 -2.976,0.8 -1.28,0.768 -2.016,2.144 -0.736,1.376 -0.736,3.104 0,1.728 0.736,3.104 0.736,1.376 2.016,2.144 1.312,0.768 2.976,0.768 z" transform="translate(0 454.007712284232) translate(252.00000000000017 53.90417277062902) scale(0.8355722384337512) translate(-217.02925 23.744)"></path>
      <path id="path58001" style="font-style: normal; font-weight: 400; font-size: 32px; line-height: 1; font-family: Montserrat; font-variant-ligatures: none; text-align: center; text-anchor: middle; fill: rgb(51, 51, 51);" d="m 240.44325,-16.928 h 2.976 V 0 h -2.976 z m 1.472,-6.752 q 0.8,0 1.312,0.544 0.544,0.544 0.544,1.376 0,0.832 -0.544,1.376 -0.512,0.544 -1.312,0.544 -0.8,0 -1.344,-0.544 -0.512,-0.544 -0.512,-1.376 0,-0.832 0.512,-1.376 0.544,-0.544 1.344,-0.544 z" transform="translate(0 454.007712284232) translate(272.07880088956324 53.95764939388877) scale(0.8355722384337512) translate(-240.05925 23.68)"></path>
      <path id="path58003" style="font-style: normal; font-weight: 400; font-size: 32px; line-height: 1; font-family: Montserrat; font-variant-ligatures: none; text-align: center; text-anchor: middle; fill: rgb(51, 51, 51);" d="m 258.44125,-13.184 q -1.056,-0.64 -2.336,-1.024 -1.248,-0.384 -2.4,-0.384 -1.344,0 -2.176,0.512 -0.8,0.48 -0.8,1.504 0,1.024 0.896,1.568 0.928,0.512 2.784,1.056 1.76,0.512 2.88,1.024 1.12,0.512 1.888,1.504 0.8,0.992 0.8,2.624 0,2.4 -1.824,3.648 -1.792,1.248 -4.48,1.248 -1.888,0 -3.68,-0.608 -1.76,-0.608 -2.976,-1.728 l 1.12,-2.176 q 1.056,0.96 2.592,1.536 1.568,0.576 3.04,0.576 1.472,0 2.368,-0.544 0.896,-0.544 0.896,-1.664 0,-1.152 -0.96,-1.728 -0.928,-0.576 -2.848,-1.152 -1.696,-0.48 -2.784,-0.96 -1.056,-0.512 -1.824,-1.472 -0.736,-0.96 -0.736,-2.496 0,-2.368 1.728,-3.552 1.728,-1.184 4.32,-1.184 1.536,0 3.008,0.448 1.504,0.416 2.592,1.152 z" transform="translate(0 454.007712284232) translate(278.728284763019 59.49247990127394) scale(0.8355722384337512) translate(-247.01725 17.056)"></path>
      <path id="path58005" style="font-style: normal; font-weight: 400; font-size: 32px; line-height: 1; font-family: Montserrat; font-variant-ligatures: none; text-align: center; text-anchor: middle; fill: rgb(51, 51, 51);" d="m 273.03125,-1.12 q -1.952,1.248 -3.968,1.248 -2.016,0 -3.264,-1.184 -1.248,-1.216 -1.248,-3.648 v -9.376 h -2.4 v -2.272 h 2.4 v -4.544 h 3.008 v 4.544 h 5.184 v 2.272 h -5.184 v 8.832 q 0,1.408 0.512,2.016 0.512,0.608 1.536,0.608 1.216,0 2.624,-0.8 z" transform="translate(0 454.007712284232) translate(292.2094072579092 56.28388250568834) scale(0.8355722384337512) translate(-262.15125 20.896)"></path>
      <path id="path58007" style="font-style: normal; font-weight: 400; font-size: 32px; line-height: 1; font-family: Montserrat; font-variant-ligatures: none; text-align: center; text-anchor: middle; fill: rgb(51, 51, 51);" d="m 276.63075,-16.928 h 2.976 V 0 h -2.976 z m 1.472,-6.752 q 0.8,0 1.312,0.544 0.544,0.544 0.544,1.376 0,0.832 -0.544,1.376 -0.512,0.544 -1.312,0.544 -0.8,0 -1.344,-0.544 -0.512,-0.544 -0.512,-1.376 0,-0.832 0.512,-1.376 0.544,-0.544 1.344,-0.544 z" transform="translate(0 454.007712284232) translate(304.8227879831859 53.95764939388877) scale(0.8355722384337512) translate(-276.24675 23.68)"></path>
      <path id="path58009" style="font-style: normal; font-weight: 400; font-size: 32px; line-height: 1; font-family: Montserrat; font-variant-ligatures: none; text-align: center; text-anchor: middle; fill: rgb(51, 51, 51);" d="m 285.54075,-23.744 h 2.976 V 0 h -2.976 z" transform="translate(0 454.007712284232) translate(313.4241686056229 53.90417277062902) scale(0.8355722384337512) translate(-285.54075 23.744)"></path>
      <path id="path58011" style="font-style: normal; font-weight: 400; font-size: 32px; line-height: 1; font-family: Montserrat; font-variant-ligatures: none; text-align: center; text-anchor: middle; fill: rgb(51, 51, 51);" d="m 294.66575,-23.744 h 2.976 V 0 h -2.976 z" transform="translate(0 454.007712284232) translate(321.88433751976464 53.90417277062902) scale(0.8355722384337512) translate(-294.66575 23.744)"></path>
      <path id="path58013" style="font-style: normal; font-weight: 400; font-size: 32px; line-height: 1; font-family: Montserrat; font-variant-ligatures: none; text-align: center; text-anchor: middle; fill: rgb(51, 51, 51);" d="m 313.96675,0 v -2.368 q -1.888,2.496 -5.92,2.496 -1.76,0 -3.104,-0.672 -1.312,-0.672 -2.048,-1.856 -0.704,-1.184 -0.704,-2.656 0,-2.272 1.664,-3.584 1.696,-1.344 4.704,-1.376 h 5.376 v -0.8 q 0,-1.792 -1.12,-2.752 -1.088,-0.992 -3.2,-0.992 -2.56,0 -5.216,1.824 l -1.248,-2.048 q 1.824,-1.184 3.36,-1.696 1.568,-0.544 3.712,-0.544 3.168,0 4.896,1.568 1.728,1.536 1.76,4.32 L 316.91075,0 Z m -5.312,-2.336 q 2.08,0 3.52,-0.992 1.472,-1.024 1.76,-2.688 v -1.696 h -4.96 q -2.016,0 -3.008,0.608 -0.96,0.608 -0.96,1.92 0,1.312 0.992,2.08 0.992,0.768 2.656,0.768 z" transform="translate(0 454.007712284232) translate(329.00759085241236 59.51921821290382) scale(0.8355722384337512) translate(-302.19075 17.024)"></path>
      <path id="path58015" style="font-style: normal; font-weight: 400; font-size: 32px; line-height: 1; font-family: Montserrat; font-variant-ligatures: none; text-align: center; text-anchor: middle; fill: rgb(51, 51, 51);" d="m 331.28125,-1.12 q -1.952,1.248 -3.968,1.248 -2.016,0 -3.264,-1.184 -1.248,-1.216 -1.248,-3.648 v -9.376 h -2.4 v -2.272 h 2.4 v -4.544 h 3.008 v 4.544 h 5.184 v 2.272 h -5.184 v 8.832 q 0,1.408 0.512,2.016 0.512,0.608 1.536,0.608 1.216,0 2.624,-0.8 z" transform="translate(0 454.007712284232) translate(345.05935133884395 56.28388250568834) scale(0.8355722384337512) translate(-320.40125 20.896)"></path>
      <path id="path58017" style="font-style: normal; font-weight: 400; font-size: 32px; line-height: 1; font-family: Montserrat; font-variant-ligatures: none; text-align: center; text-anchor: middle; fill: rgb(51, 51, 51);" d="m 341.41475,-17.024 q 3.936,0 5.952,2.336 2.016,2.304 2.016,6.432 0,0.64 -0.032,0.96 h -13.376 q 0.352,2.272 1.888,3.616 1.568,1.344 3.84,1.344 1.504,0 2.784,-0.544 1.312,-0.544 2.272,-1.536 l 1.632,1.696 q -1.248,1.344 -3.008,2.08 -1.76,0.736 -3.904,0.736 -2.496,0 -4.448,-1.056 -1.92,-1.088 -3.008,-3.04 -1.056,-1.952 -1.056,-4.448 0,-2.496 1.056,-4.416 1.088,-1.952 3.008,-3.04 1.92,-1.12 4.384,-1.12 z m 5.28,7.424 q -0.128,-2.304 -1.536,-3.616 -1.408,-1.344 -3.712,-1.344 -2.24,0 -3.744,1.344 -1.472,1.344 -1.76,3.616 z" transform="translate(0 454.007712284232) translate(356.394306539317 59.51921821290382) scale(0.8355722384337512) translate(-332.96675 17.024)"></path>
      <path id="path58019" style="font-style: normal; font-weight: 400; font-size: 32px; line-height: 1; font-family: Montserrat; font-variant-ligatures: none; text-align: center; text-anchor: middle; fill: rgb(51, 51, 51);" d="m 362.69125,-13.184 q -1.056,-0.64 -2.336,-1.024 -1.248,-0.384 -2.4,-0.384 -1.344,0 -2.176,0.512 -0.8,0.48 -0.8,1.504 0,1.024 0.896,1.568 0.928,0.512 2.784,1.056 1.76,0.512 2.88,1.024 1.12,0.512 1.888,1.504 0.8,0.992 0.8,2.624 0,2.4 -1.824,3.648 -1.792,1.248 -4.48,1.248 -1.888,0 -3.68,-0.608 -1.76,-0.608 -2.976,-1.728 l 1.12,-2.176 q 1.056,0.96 2.592,1.536 1.568,0.576 3.04,0.576 1.472,0 2.368,-0.544 0.896,-0.544 0.896,-1.664 0,-1.152 -0.96,-1.728 -0.928,-0.576 -2.848,-1.152 -1.696,-0.48 -2.784,-0.96 -1.056,-0.512 -1.824,-1.472 -0.736,-0.96 -0.736,-2.496 0,-2.368 1.728,-3.552 1.728,-1.184 4.32,-1.184 1.536,0 3.008,0.448 1.504,0.416 2.592,1.152 z" transform="translate(0 454.007712284232) translate(372.52126852720755 59.49247990127394) scale(0.8355722384337512) translate(-351.26725 17.056)"></path>
      <path id="path58021" style="font-style: normal; font-weight: 400; font-size: 32px; line-height: 1; font-family: Montserrat; font-variant-ligatures: none; text-align: center; text-anchor: middle; fill: rgb(51, 51, 51);" d="m 383.60825,-17.024 q 2.528,0 4.48,1.088 1.984,1.088 3.072,3.04 1.12,1.92 1.12,4.416 0,2.496 -1.12,4.448 -1.088,1.952 -3.072,3.04 -1.952,1.088 -4.48,1.088 -2.56,0 -4.544,-1.088 -1.952,-1.088 -3.072,-3.008 -1.088,-1.952 -1.088,-4.48 0,-2.496 1.088,-4.416 1.12,-1.952 3.072,-3.04 1.984,-1.088 4.544,-1.088 z m 0,2.592 q -1.664,0 -2.976,0.768 -1.28,0.768 -2.016,2.144 -0.704,1.344 -0.704,3.072 0,1.76 0.704,3.136 0.736,1.376 2.016,2.144 1.312,0.736 2.976,0.736 1.632,0 2.912,-0.736 1.312,-0.768 2.016,-2.144 0.736,-1.376 0.736,-3.136 0,-1.728 -0.736,-3.072 -0.704,-1.376 -2.016,-2.144 -1.28,-0.768 -2.912,-0.768 z" transform="translate(0 454.007712284232) translate(393.1072617654999 59.51921821290382) scale(0.8355722384337512) translate(-374.90425 17.024)"></path>
      <path id="path58023" style="font-style: normal; font-weight: 400; font-size: 32px; line-height: 1; font-family: Montserrat; font-variant-ligatures: none; text-align: center; text-anchor: middle; fill: rgb(51, 51, 51);" d="m 405.85125,-17.024 q 2.976,0 4.672,1.76 1.696,1.728 1.696,4.8 V 0 h -2.976 v -9.664 q 0,-2.144 -1.216,-3.328 -1.184,-1.216 -3.296,-1.216 -2.272,0.032 -3.712,1.472 -1.408,1.408 -1.6,3.68 V 0 h -2.976 v -16.928 h 2.976 v 3.584 q 1.696,-3.616 6.432,-3.68 z" transform="translate(0 454.007712284232) translate(411.94022444755825 59.51921821290382) scale(0.8355722384337512) translate(-396.44325 17.024)"></path>
      <path id="path58025" style="font-style: normal; font-weight: 400; font-size: 32px; line-height: 1; font-family: Montserrat; font-variant-ligatures: none; text-align: center; text-anchor: middle; fill: rgb(51, 51, 51);" d="m 435.48075,-17.024 q 2.976,0 4.672,1.76 1.696,1.728 1.696,4.8 V 0 h -2.976 v -9.664 q 0,-2.144 -1.216,-3.328 -1.184,-1.216 -3.296,-1.216 -2.464,0.032 -3.904,1.664 -1.44,1.632 -1.44,4.224 V 0 h -2.976 v -23.744 h 2.976 v 10.464 q 1.696,-3.68 6.464,-3.744 z" transform="translate(0 454.007712284232) translate(437.506646013035 53.90417277062902) scale(0.8355722384337512) translate(-426.04075 23.744)"></path>
      <path id="path58027" style="font-style: normal; font-weight: 400; font-size: 32px; line-height: 1; font-family: Montserrat; font-variant-ligatures: none; text-align: center; text-anchor: middle; fill: rgb(51, 51, 51);" d="M 462.10675,-16.928 V 0 h -3.008 v -3.584 q -1.664,3.616 -6.272,3.68 -2.944,0 -4.608,-1.728 -1.664,-1.76 -1.664,-4.832 v -10.464 h 3.008 v 9.664 q 0,2.144 1.152,3.36 1.184,1.184 3.232,1.184 2.368,-0.032 3.744,-1.664 1.408,-1.664 1.408,-4.224 v -8.32 z" transform="translate(0 454.007712284232) translate(455.4831471506987 59.59943314779346) scale(0.8355722384337512) translate(-446.55475 16.928)"></path>
      <path id="path58029" style="font-style: normal; font-weight: 400; font-size: 32px; line-height: 1; font-family: Montserrat; font-variant-ligatures: none; text-align: center; text-anchor: middle; fill: rgb(51, 51, 51);" d="m 489.73675,-17.024 q 2.912,0 4.576,1.76 1.664,1.76 1.664,4.8 V 0 h -3.008 v -9.664 q 0,-2.144 -1.184,-3.36 -1.152,-1.216 -3.2,-1.216 -2.4,0.064 -3.776,1.696 -1.376,1.632 -1.376,4.192 V 0 h -3.008 v -9.664 q 0,-2.144 -1.152,-3.36 -1.152,-1.216 -3.232,-1.216 -2.4,0.064 -3.808,1.696 -1.376,1.632 -1.376,4.192 V 0 h -2.976 v -16.928 h 2.976 v 3.552 q 1.664,-3.584 6.304,-3.648 2.336,0 3.872,1.12 1.568,1.12 2.112,3.136 1.568,-4.192 6.592,-4.256 z" transform="translate(0 454.007712284232) translate(474.1381329459706 59.51921821290382) scale(0.8355722384337512) translate(-467.88075 17.024)"></path>
      <path id="path58031" style="font-style: normal; font-weight: 400; font-size: 32px; line-height: 1; font-family: Montserrat; font-variant-ligatures: none; text-align: center; text-anchor: middle; fill: rgb(51, 51, 51);" d="m 511.65425,0 v -2.368 q -1.888,2.496 -5.92,2.496 -1.76,0 -3.104,-0.672 -1.312,-0.672 -2.048,-1.856 -0.704,-1.184 -0.704,-2.656 0,-2.272 1.664,-3.584 1.696,-1.344 4.704,-1.376 h 5.376 v -0.8 q 0,-1.792 -1.12,-2.752 -1.088,-0.992 -3.2,-0.992 -2.56,0 -5.216,1.824 l -1.248,-2.048 q 1.824,-1.184 3.36,-1.696 1.568,-0.544 3.712,-0.544 3.168,0 4.896,1.568 1.728,1.536 1.76,4.32 L 514.59825,0 Z m -5.312,-2.336 q 2.08,0 3.52,-0.992 1.472,-1.024 1.76,-2.688 v -1.696 h -4.96 q -2.016,0 -3.008,0.608 -0.96,0.608 -0.96,1.92 0,1.312 0.992,2.08 0.992,0.768 2.656,0.768 z" transform="translate(0 454.007712284232) translate(501.7099278836883 59.51921821290382) scale(0.8355722384337512) translate(-499.87825 17.024)"></path>
      <path id="path58033" style="font-style: normal; font-weight: 400; font-size: 32px; line-height: 1; font-family: Montserrat; font-variant-ligatures: none; text-align: center; text-anchor: middle; fill: rgb(51, 51, 51);" d="m 529.28875,-17.024 q 2.976,0 4.672,1.76 1.696,1.728 1.696,4.8 V 0 h -2.976 v -9.664 q 0,-2.144 -1.216,-3.328 -1.184,-1.216 -3.296,-1.216 -2.272,0.032 -3.712,1.472 -1.408,1.408 -1.6,3.68 V 0 h -2.976 v -16.928 h 2.976 v 3.584 q 1.696,-3.616 6.432,-3.68 z" transform="translate(0 454.007712284232) translate(519.2590338213931 59.51921821290382) scale(0.8355722384337512) translate(-519.88075 17.024)"></path>
      <path id="path58035" style="font-style: normal; font-weight: 400; font-size: 32px; line-height: 1; font-family: Montserrat; font-variant-ligatures: none; text-align: center; text-anchor: middle; fill: rgb(51, 51, 51);" d="m 550.19125,-13.184 q -1.056,-0.64 -2.336,-1.024 -1.248,-0.384 -2.4,-0.384 -1.344,0 -2.176,0.512 -0.8,0.48 -0.8,1.504 0,1.024 0.896,1.568 0.928,0.512 2.784,1.056 1.76,0.512 2.88,1.024 1.12,0.512 1.888,1.504 0.8,0.992 0.8,2.624 0,2.4 -1.824,3.648 -1.792,1.248 -4.48,1.248 -1.888,0 -3.68,-0.608 -1.76,-0.608 -2.976,-1.728 l 1.12,-2.176 q 1.056,0.96 2.592,1.536 1.568,0.576 3.04,0.576 1.472,0 2.368,-0.544 0.896,-0.544 0.896,-1.664 0,-1.152 -0.96,-1.728 -0.928,-0.576 -2.848,-1.152 -1.696,-0.48 -2.784,-0.96 -1.056,-0.512 -1.824,-1.472 -0.736,-0.96 -0.736,-2.496 0,-2.368 1.728,-3.552 1.728,-1.184 4.32,-1.184 1.536,0 3.008,0.448 1.504,0.416 2.592,1.152 z" transform="translate(0 454.007712284232) translate(535.875641141006 59.49247990127394) scale(0.8355722384337512) translate(-538.76725 17.056)"></path>
      <path id="path58037" style="font-style: normal; font-weight: 400; font-size: 32px; line-height: 1; font-family: Montserrat; font-variant-ligatures: none; text-align: center; text-anchor: middle; fill: rgb(51, 51, 51);" d="m 574.40425,0 v -2.368 q -1.888,2.496 -5.92,2.496 -1.76,0 -3.104,-0.672 -1.312,-0.672 -2.048,-1.856 -0.704,-1.184 -0.704,-2.656 0,-2.272 1.664,-3.584 1.696,-1.344 4.704,-1.376 h 5.376 v -0.8 q 0,-1.792 -1.12,-2.752 -1.088,-0.992 -3.2,-0.992 -2.56,0 -5.216,1.824 l -1.248,-2.048 q 1.824,-1.184 3.36,-1.696 1.568,-0.544 3.712,-0.544 3.168,0 4.896,1.568 1.728,1.536 1.76,4.32 L 577.34825,0 Z m -5.312,-2.336 q 2.08,0 3.52,-0.992 1.472,-1.024 1.76,-2.688 v -1.696 h -4.96 q -2.016,0 -3.008,0.608 -0.96,0.608 -0.96,1.92 0,1.312 0.992,2.08 0.992,0.768 2.656,0.768 z" transform="translate(0 454.007712284232) translate(556.6488025607074 59.51921821290382) scale(0.8355722384337512) translate(-562.62825 17.024)"></path>
      <path id="path58039" style="font-style: normal; font-weight: 400; font-size: 32px; line-height: 1; font-family: Montserrat; font-variant-ligatures: none; text-align: center; text-anchor: middle; fill: rgb(51, 51, 51);" d="m 592.03875,-17.024 q 2.976,0 4.672,1.76 1.696,1.728 1.696,4.8 V 0 h -2.976 v -9.664 q 0,-2.144 -1.216,-3.328 -1.184,-1.216 -3.296,-1.216 -2.272,0.032 -3.712,1.472 -1.408,1.408 -1.6,3.68 V 0 h -2.976 v -16.928 h 2.976 v 3.584 q 1.696,-3.616 6.432,-3.68 z" transform="translate(0 454.007712284232) translate(574.1979084984123 59.51921821290382) scale(0.8355722384337512) translate(-582.63075 17.024)"></path>
      <path id="path58041" style="font-style: normal; font-weight: 400; font-size: 32px; line-height: 1; font-family: Montserrat; font-variant-ligatures: none; text-align: center; text-anchor: middle; fill: rgb(51, 51, 51);" d="M 619.46925,-23.744 V 0 h -2.976 v -3.36 q -0.96,1.696 -2.592,2.624 -1.6,0.896 -3.744,0.896 -2.4,0 -4.256,-1.088 -1.824,-1.12 -2.848,-3.072 -1.024,-1.984 -1.024,-4.512 0,-2.496 1.024,-4.416 1.024,-1.952 2.848,-3.04 1.856,-1.088 4.224,-1.088 2.176,0 3.808,0.896 1.632,0.896 2.56,2.592 v -10.176 z m -8.704,21.344 q 1.664,0 2.944,-0.768 1.312,-0.768 2.048,-2.144 0.736,-1.376 0.736,-3.104 0,-1.76 -0.736,-3.136 -0.736,-1.376 -2.048,-2.144 -1.28,-0.768 -2.944,-0.768 -1.664,0 -2.976,0.8 -1.28,0.768 -2.016,2.144 -0.736,1.376 -0.736,3.104 0,1.728 0.736,3.104 0.736,1.376 2.016,2.144 1.312,0.768 2.976,0.768 z" transform="translate(0 454.007712284232) translate(591.2423288041032 53.90417277062902) scale(0.8355722384337512) translate(-602.02925 23.744)"></path>
      <path id="path58043" style="font-style: normal; font-weight: 400; font-size: 32px; line-height: 1; font-family: Montserrat; font-variant-ligatures: none; text-align: center; text-anchor: middle; fill: rgb(51, 51, 51);" d="m 642.90625,-1.12 q -1.952,1.248 -3.968,1.248 -2.016,0 -3.264,-1.184 -1.248,-1.216 -1.248,-3.648 v -9.376 h -2.4 v -2.272 h 2.4 v -4.544 h 3.008 v 4.544 h 5.184 v 2.272 h -5.184 v 8.832 q 0,1.408 0.512,2.016 0.512,0.608 1.536,0.608 1.216,0 2.624,-0.8 z" transform="translate(0 454.007712284232) translate(617.1425614788341 56.28388250568834) scale(0.8355722384337512) translate(-632.02625 20.896)"></path>
      <path id="path58045" style="font-style: normal; font-weight: 400; font-size: 32px; line-height: 1; font-family: Montserrat; font-variant-ligatures: none; text-align: center; text-anchor: middle; fill: rgb(51, 51, 51);" d="m 653.03975,-17.024 q 3.936,0 5.952,2.336 2.016,2.304 2.016,6.432 0,0.64 -0.032,0.96 h -13.376 q 0.352,2.272 1.888,3.616 1.568,1.344 3.84,1.344 1.504,0 2.784,-0.544 1.312,-0.544 2.272,-1.536 l 1.632,1.696 q -1.248,1.344 -3.008,2.08 -1.76,0.736 -3.904,0.736 -2.496,0 -4.448,-1.056 -1.92,-1.088 -3.008,-3.04 -1.056,-1.952 -1.056,-4.448 0,-2.496 1.056,-4.416 1.088,-1.952 3.008,-3.04 1.92,-1.12 4.384,-1.12 z m 5.28,7.424 q -0.128,-2.304 -1.536,-3.616 -1.408,-1.344 -3.712,-1.344 -2.24,0 -3.744,1.344 -1.472,1.344 -1.76,3.616 z" transform="translate(0 454.007712284232) translate(628.4775166793072 59.51921821290382) scale(0.8355722384337512) translate(-644.59175 17.024)"></path>
      <path id="path58047" style="font-style: normal; font-weight: 400; font-size: 32px; line-height: 1; font-family: Montserrat; font-variant-ligatures: none; text-align: center; text-anchor: middle; fill: rgb(51, 51, 51);" d="m 676.94025,-12.416 q -2.016,-1.952 -4.832,-1.952 -1.664,0 -2.976,0.736 -1.28,0.736 -2.016,2.08 -0.736,1.344 -0.736,3.104 0,1.76 0.704,3.104 0.736,1.344 1.984,2.112 1.28,0.736 2.912,0.736 1.632,0 2.944,-0.544 1.312,-0.544 2.176,-1.568 l 1.696,1.728 q -1.152,1.44 -2.944,2.208 -1.76,0.768 -4,0.768 -2.464,0 -4.384,-1.088 -1.92,-1.088 -3.008,-3.008 -1.056,-1.952 -1.056,-4.448 0,-2.496 1.056,-4.448 1.088,-1.952 3.008,-3.04 1.92,-1.088 4.384,-1.088 2.144,0 3.84,0.672 1.728,0.64 2.88,1.888 z" transform="translate(0 454.007712284232) translate(645.0322916532758 59.51921821290382) scale(0.8355722384337512) translate(-663.40425 17.024)"></path>
      <path id="path58049" style="font-style: normal; font-weight: 400; font-size: 32px; line-height: 1; font-family: Montserrat; font-variant-ligatures: none; text-align: center; text-anchor: middle; fill: rgb(51, 51, 51);" d="m 692.66825,-17.024 q 2.976,0 4.672,1.76 1.696,1.728 1.696,4.8 V 0 h -2.976 v -9.664 q 0,-2.144 -1.216,-3.328 -1.184,-1.216 -3.296,-1.216 -2.464,0.032 -3.904,1.664 -1.44,1.632 -1.44,4.224 V 0 h -2.976 v -23.744 h 2.976 v 10.464 q 1.696,-3.68 6.464,-3.744 z" transform="translate(0 454.007712284232) translate(662.4322479464201 53.90417277062902) scale(0.8355722384337512) translate(-683.22825 23.744)"></path>
      <path id="path58051" style="font-style: normal; font-weight: 400; font-size: 32px; line-height: 1; font-family: Montserrat; font-variant-ligatures: none; text-align: center; text-anchor: middle; fill: rgb(51, 51, 51);" d="m 713.72625,-17.024 q 2.976,0 4.672,1.76 1.696,1.728 1.696,4.8 V 0 h -2.976 v -9.664 q 0,-2.144 -1.216,-3.328 -1.184,-1.216 -3.296,-1.216 -2.272,0.032 -3.712,1.472 -1.408,1.408 -1.6,3.68 V 0 h -2.976 v -16.928 h 2.976 v 3.584 q 1.696,-3.616 6.432,-3.68 z" transform="translate(0 454.007712284232) translate(680.8900386934217 59.51921821290382) scale(0.8355722384337512) translate(-704.31825 17.024)"></path>
      <path id="path58053" style="font-style: normal; font-weight: 400; font-size: 32px; line-height: 1; font-family: Montserrat; font-variant-ligatures: none; text-align: center; text-anchor: middle; fill: rgb(51, 51, 51);" d="m 732.42075,-17.024 q 2.528,0 4.48,1.088 1.984,1.088 3.072,3.04 1.12,1.92 1.12,4.416 0,2.496 -1.12,4.448 -1.088,1.952 -3.072,3.04 -1.952,1.088 -4.48,1.088 -2.56,0 -4.544,-1.088 -1.952,-1.088 -3.072,-3.008 -1.088,-1.952 -1.088,-4.48 0,-2.496 1.088,-4.416 1.12,-1.952 3.072,-3.04 1.984,-1.088 4.544,-1.088 z m 0,2.592 q -1.664,0 -2.976,0.768 -1.28,0.768 -2.016,2.144 -0.704,1.344 -0.704,3.072 0,1.76 0.704,3.136 0.736,1.376 2.016,2.144 1.312,0.736 2.976,0.736 1.632,0 2.912,-0.736 1.312,-0.768 2.016,-2.144 0.736,-1.376 0.736,-3.136 0,-1.728 -0.736,-3.072 -0.704,-1.376 -2.016,-2.144 -1.28,-0.768 -2.912,-0.768 z" transform="translate(0 454.007712284232) translate(697.9344589991126 59.51921821290382) scale(0.8355722384337512) translate(-723.71675 17.024)"></path>
      <path id="path58055" style="font-style: normal; font-weight: 400; font-size: 32px; line-height: 1; font-family: Montserrat; font-variant-ligatures: none; text-align: center; text-anchor: middle; fill: rgb(51, 51, 51);" d="m 745.41575,-23.744 h 2.976 V 0 h -2.976 z" transform="translate(0 454.007712284232) translate(716.9011132393202 53.90417277062902) scale(0.8355722384337512) translate(-745.41575 23.744)"></path>
      <path id="path58057" style="font-style: normal; font-weight: 400; font-size: 32px; line-height: 1; font-family: Montserrat; font-variant-ligatures: none; text-align: center; text-anchor: middle; fill: rgb(51, 51, 51);" d="m 761.42075,-17.024 q 2.528,0 4.48,1.088 1.984,1.088 3.072,3.04 1.12,1.92 1.12,4.416 0,2.496 -1.12,4.448 -1.088,1.952 -3.072,3.04 -1.952,1.088 -4.48,1.088 -2.56,0 -4.544,-1.088 -1.952,-1.088 -3.072,-3.008 -1.088,-1.952 -1.088,-4.48 0,-2.496 1.088,-4.416 1.12,-1.952 3.072,-3.04 1.984,-1.088 4.544,-1.088 z m 0,2.592 q -1.664,0 -2.976,0.768 -1.28,0.768 -2.016,2.144 -0.704,1.344 -0.704,3.072 0,1.76 0.704,3.136 0.736,1.376 2.016,2.144 1.312,0.736 2.976,0.736 1.632,0 2.912,-0.736 1.312,-0.768 2.016,-2.144 0.736,-1.376 0.736,-3.136 0,-1.728 -0.736,-3.072 -0.704,-1.376 -2.016,-2.144 -1.28,-0.768 -2.912,-0.768 z" transform="translate(0 454.007712284232) translate(723.8371983905589 59.51921821290382) scale(0.8355722384337512) translate(-752.71675 17.024)"></path>
      <path id="path58059" style="font-style: normal; font-weight: 400; font-size: 32px; line-height: 1; font-family: Montserrat; font-variant-ligatures: none; text-align: center; text-anchor: middle; fill: rgb(51, 51, 51);" d="m 789.23175,-16.928 v 15.2 q 0,2.432 -1.088,4.256 -1.056,1.824 -3.008,2.784 -1.952,0.992 -4.544,0.992 -3.744,0 -6.976,-2.368 l 1.312,-2.176 q 1.248,1.024 2.592,1.504 1.344,0.512 2.944,0.512 2.624,0 4.192,-1.472 1.568,-1.472 1.568,-3.936 V -4 q -0.896,1.536 -2.432,2.4 -1.536,0.832 -3.52,0.832 -2.272,0 -4.032,-1.024 -1.728,-1.056 -2.688,-2.912 -0.96,-1.856 -0.96,-4.256 0,-2.368 0.96,-4.192 0.96,-1.824 2.688,-2.848 1.76,-1.024 4.032,-1.024 2.016,0 3.52,0.832 1.536,0.832 2.432,2.368 v -3.104 z m -8.384,13.76 q 1.568,0 2.784,-0.736 1.216,-0.736 1.888,-2.016 0.704,-1.312 0.704,-2.944 0,-1.664 -0.704,-2.944 -0.672,-1.312 -1.888,-2.048 -1.216,-0.736 -2.784,-0.736 -1.568,0 -2.816,0.736 -1.216,0.736 -1.92,2.048 -0.704,1.28 -0.704,2.944 0.032,2.496 1.536,4.096 1.504,1.6 3.904,1.6 z" transform="translate(0 454.007712284232) translate(741.2797688678635 59.51921821290382) scale(0.8355722384337512) translate(-772.59175 17.024)"></path>
      <path id="path58061" style="font-style: normal; font-weight: 400; font-size: 32px; line-height: 1; font-family: Montserrat; font-variant-ligatures: none; text-align: center; text-anchor: middle; fill: rgb(51, 51, 51);" d="m 800.61325,2.4 q -0.8,1.952 -2.144,2.944 -1.312,0.992 -3.104,0.992 -1.088,0 -1.984,-0.32 -0.896,-0.32 -1.728,-0.992 l 1.28,-2.336 q 1.12,0.8 2.272,0.8 1.92,0 2.88,-2.176 l 0.64,-1.504 -7.008,-16.736 h 3.136 l 5.376,13.568 5.088,-13.568 h 3.04 z" transform="translate(0 454.007712284232) translate(758.0426013292022 59.59943314779346) scale(0.8355722384337512) translate(-791.65325 16.928)"></path>
    </g>
  </g>
</svg>