<svg data-v-913f40ec="" version="1.0" xmlns="http://www.w3.org/2000/svg" xmlns:xlink="http://www.w3.org/1999/xlink" width="100%" height="100%" viewBox="0 0 340.000000 250.000000" preserveAspectRatio="xMidYMid meet" color-interpolation-filters="sRGB" class="el-tooltip" style="margin: auto;"><rect data-v-913f40ec="" x="0" y="0" width="100%" height="100%" fill="#fff" fill-opacity="1" class="background"></rect> <rect data-v-913f40ec="" x="0" y="0" width="100%" height="100%" fill="url(#watermark)" fill-opacity="1" class="watermarklayer"></rect> <g data-v-913f40ec="" fill="#333" class="iconlinesvg-g iconlinesvg" transform="translate(62.11000061035156,88.03317260742188)"><g class="tp-name" transform="translate(0,0)"><g transform="translate(0, 4.355)"><g fill="#333"><path d="M10.08-15.99C10.08-10.72 10.14-6.31 9.75-3.90C9.55-2.47 9.17-1.10 8.06-0.91C7.54-0.78 7.08-0.72 6.57-0.72C6.04-0.72 5.85-0.46 5.85-0.26C5.85 0.07 6.17 0.20 6.76 0.20C7.74 0.20 9.29 0.07 10.53 0.07C11.77 0 12.61 0 12.74 0C12.94 0 14.95 0.20 17.42 0.33C19.89 0.52 23.07 0.65 25.55 0.65C35.43 0.65 40.37-3.19 42.90-5.72C46.09-8.97 49.08-14.37 49.08-21.25C49.08-27.82 46.41-32.37 43.55-35.23C36.66-42.19 26-41.60 20.28-41.60C16.64-41.60 13.26-41.41 12.80-41.41C12.61-41.41 8.52-41.60 5.85-41.60C5.27-41.60 4.88-41.47 4.88-41.08C4.88-40.88 5.20-40.69 5.53-40.69C6.04-40.69 7.02-40.63 7.41-40.56C9.29-40.17 9.81-39.26 9.95-37.51C10.08-35.81 10.08-34.19 10.08-25.61ZM15.41-26.65C15.41-30.55 15.41-36.08 15.47-37.96C15.47-38.55 15.67-38.80 16.19-39.07C16.57-39.33 18.59-39.52 19.50-39.52C25.94-39.52 32.30-38.87 37.83-33.34C40.04-31.20 43.42-26.71 43.42-19.37C43.42-14.17 42.05-9.29 39.20-6.44C35.81-3.06 31.01-1.36 25.68-1.36C18.91-1.36 16.84-2.73 16.12-3.83C15.67-4.42 15.54-6.17 15.47-8.19C15.47-9.17 15.41-14.24 15.41-20.09Z" transform="translate(-4.875, 42.38)"></path></g></g><g transform="translate(48.2, 0)"><g class="imagesvg"><rect fill="#333" fill-opacity="0" stroke-width="2" x="0" y="0" width="52.0896551724128" height="52.0896551724128" class="image-rect"></rect> <image filter="url(#colors5602863558)" xlink:href="https://static.thenounproject.com/png/1362105-200.png" x="0" y="0" width="52.0896551724128" height="52.0896551724128" filtersec="colorsf9912121609" class="imagesvg-image"></image> <defs><filter id="colors5602863558"><feColorMatrix type="matrix" values="0 0 0 0 0.19921875  0 0 0 0 0.19921875  0 0 0 0 0.19921875  0 0 0 1 0" class="icon-fecolormatrix"></feColorMatrix></filter> <filter id="colorsf9912121609"><feColorMatrix type="matrix" values="0 0 0 0 0.99609375  0 0 0 0 0.99609375  0 0 0 0 0.99609375  0 0 0 1 0" class="icon-fecolormatrix"></feColorMatrix></filter> <filter id="colorsb8940758212"><feColorMatrix type="matrix" values="0 0 0 0 0  0 0 0 0 0  0 0 0 0 0  0 0 0 1 0" class="icon-fecolormatrix"></feColorMatrix></filter></defs></g></g><g transform="translate(104.2, 4.355)"><g fill="#333"><path d="M15.47-4.03C16.77 0.07 17.09 0.91 17.75 0.91C18.33 0.91 18.79 0.13 19.76-2.41C21.71-7.35 29.57-26.98 31.66-32.05L42.84-2.41C43.68 0 44.07 0.91 44.72 0.91C45.24 0.91 45.70 0 47.39-4.55C49.34-9.95 55.12-27.37 57.66-34.38C58.70-37.31 59.34-40.04 61.30-40.50C61.95-40.63 62.79-40.69 62.98-40.69C63.51-40.69 63.83-40.88 63.83-41.21C63.83-41.41 63.57-41.60 63.05-41.60C61.30-41.60 58.11-41.41 57.72-41.41C57.27-41.41 54.66-41.60 52.26-41.60C51.55-41.60 51.29-41.47 51.29-41.21C51.29-40.95 51.55-40.69 52.13-40.69C54.93-40.69 55.25-39.98 55.25-39C55.25-38.29 55.19-37.96 54.73-36.27C52.98-29.84 47.52-13.33 45.95-8.00L34.45-38.55C33.67-40.63 33.34-41.41 32.89-41.41C32.56-41.41 32.24-41.08 31.33-38.61L19.30-8.06C18.33-11.18 12.74-30.48 11.89-34.00C11.31-36.47 10.79-38.29 10.79-39C10.79-39.65 10.86-40.17 11.44-40.37C12.16-40.63 13.07-40.63 13.52-40.63C14.04-40.63 14.43-40.76 14.43-41.15C14.43-41.34 14.30-41.60 13.52-41.60C10.46-41.60 7.61-41.41 7.15-41.41C6.50-41.41 3.51-41.60 0.13-41.60C-0.52-41.60-0.84-41.47-0.84-41.21C-0.84-40.82-0.39-40.69-0.07-40.69C0.39-40.69 1.56-40.63 2.27-40.43C4.09-39.91 4.55-38.94 5.46-36.08Z" transform="translate(0.845, 42.38)"></path></g></g><g transform="translate(172.875, 4.355)"><g fill="#333"><path d="M42.38-10.46C42.38-12.80 42.38-14.43 42.51-16.32C42.64-18.20 43.03-19.37 44.59-19.57C45.11-19.63 45.24-19.63 45.70-19.63C46.28-19.63 46.48-19.89 46.48-20.09C46.48-20.41 46.22-20.54 45.57-20.54C43.81-20.54 39.98-20.41 39.72-20.41C39.45-20.41 35.69-20.54 33.09-20.54C32.37-20.54 32.11-20.41 32.11-20.09C32.11-19.89 32.37-19.63 32.89-19.63C33.41-19.63 34.06-19.57 34.45-19.50C36.73-19.18 37.05-18.33 37.05-14.04L37.05-4.68C37.05-3.77 36.59-3.12 35.95-2.73C34.45-1.95 31.59-1.63 29.77-1.63C24.12-1.63 19.30-3.51 15.02-7.67C13.33-9.29 9.10-15.02 9.10-22.75C9.10-29.19 11.25-34.13 14.56-36.66C18.91-39.98 23.01-40.11 26.52-40.11C33.80-40.11 38.48-37.70 39.98-35.55C40.95-34.13 41.21-32.11 41.21-31.53C41.27-31.14 41.34-30.75 41.66-30.75C42.12-30.75 42.19-31.01 42.19-31.92C42.19-37.63 42.64-39.59 42.64-40.37C42.64-40.63 42.64-40.88 42.12-40.88C40.76-40.95 38.22-41.27 37.18-41.47C34.84-41.86 32.05-42.38 27.89-42.38C23.92-42.38 18.39-41.99 13.39-39.07C8.06-35.88 3.58-29.57 3.58-20.73C3.58-13.33 7.08-7.87 10.60-4.94C17.23 0.58 25.41 0.91 29.64 0.91C32.83 0.91 38.02 0.26 41.60-1.56C42.32-1.95 42.38-2.02 42.38-4.62Z" transform="translate(-3.575, 42.38)"></path></g></g></g> <g fill-rule="" hollow-target="custom" class="tp-slogan" fill="#333" transform="translate(0,65.08965682983398)"><rect x="0" height="1" y="3.9200000762939453" width="18.86249542236328"></rect> <rect height="1" y="3.9200000762939453" width="18.86249542236328" x="196.9124984741211"></rect> <g transform="translate(21.86249542236328,0)"><path d="M4.32 0.16L4.32 0.16Q3.51 0.16 2.84-0.16Q2.17-0.47 1.69-1.05Q1.21-1.63 0.94-2.45Q0.68-3.28 0.68-4.30L0.68-4.30Q0.68-5.33 0.94-6.14Q1.21-6.96 1.69-7.52Q2.17-8.09 2.84-8.39Q3.51-8.68 4.32-8.68L4.32-8.68Q5.12-8.68 5.79-8.38Q6.46-8.07 6.95-7.51Q7.44-6.94 7.70-6.13Q7.97-5.32 7.97-4.30L7.97-4.30Q7.97-3.28 7.70-2.45Q7.44-1.63 6.95-1.05Q6.46-0.47 5.79-0.16Q5.12 0.16 4.32 0.16ZM4.32-0.79L4.32-0.79Q4.89-0.79 5.35-1.04Q5.81-1.29 6.14-1.75Q6.47-2.21 6.66-2.85Q6.84-3.50 6.84-4.30L6.84-4.30Q6.84-5.10 6.66-5.73Q6.47-6.37 6.14-6.81Q5.81-7.25 5.35-7.49Q4.89-7.74 4.32-7.74L4.32-7.74Q3.74-7.74 3.28-7.49Q2.82-7.25 2.49-6.81Q2.16-6.37 1.98-5.73Q1.79-5.10 1.79-4.30L1.79-4.30Q1.79-3.50 1.98-2.85Q2.16-2.21 2.49-1.75Q2.82-1.29 3.28-1.04Q3.74-0.79 4.32-0.79ZM9.80 0L9.80-8.53L10.92-8.53L14.00-3.17L14.92-1.40L14.98-1.40Q14.94-2.05 14.89-2.75Q14.85-3.45 14.85-4.12L14.85-4.12L14.85-8.53L15.87-8.53L15.87 0L14.76 0L11.66-5.37L10.74-7.12L10.69-7.12Q10.74-6.47 10.78-5.80Q10.83-5.14 10.83-4.46L10.83-4.46L10.83 0L9.80 0ZM20.84 0L20.84-8.53L21.92-8.53L21.92-4.95L25.88-4.95L25.88-8.53L26.98-8.53L26.98 0L25.88 0L25.88-4.02L21.92-4.02L21.92 0L20.84 0ZM29.28-3.52L29.28-8.53L30.36-8.53L30.36-3.50Q30.36-2.73 30.51-2.21Q30.67-1.69 30.93-1.38Q31.20-1.07 31.56-0.93Q31.93-0.79 32.34-0.79L32.34-0.79Q32.77-0.79 33.14-0.93Q33.50-1.07 33.77-1.38Q34.05-1.69 34.20-2.21Q34.36-2.73 34.36-3.50L34.36-3.50L34.36-8.53L35.40-8.53L35.40-3.52Q35.40-2.50 35.17-1.79Q34.93-1.09 34.52-0.66Q34.11-0.22 33.55-0.03Q32.99 0.16 32.34 0.16L32.34 0.16Q31.69 0.16 31.13-0.03Q30.56-0.22 30.15-0.66Q29.74-1.09 29.51-1.79Q29.28-2.50 29.28-3.52L29.28-3.52ZM37.70 0L37.70-8.53L38.97-8.53L40.63-3.95L41.25-2.21L41.30-2.21L41.90-3.95L43.54-8.53L44.81-8.53L44.81 0L43.78 0L43.78-4.69Q43.78-5.27 43.83-5.95Q43.88-6.64 43.93-7.22L43.93-7.22L43.88-7.22L43.19-5.32L41.55-0.86L40.94-0.86L39.29-5.32L38.61-7.22L38.56-7.22Q38.60-6.64 38.65-5.95Q38.70-5.27 38.70-4.69L38.70-4.69L38.70 0L37.70 0ZM48.22-3.47L50.78-3.47L50.38-4.77Q50.14-5.49 49.93-6.19Q49.73-6.90 49.52-7.64L49.52-7.64L49.47-7.64Q49.27-6.90 49.06-6.19Q48.85-5.49 48.62-4.77L48.62-4.77L48.22-3.47ZM51.86 0L51.05-2.60L47.94-2.60L47.13 0L46.02 0L48.91-8.53L50.13-8.53L53.01 0L51.86 0ZM54.22 0L54.22-8.53L55.34-8.53L58.42-3.17L59.35-1.40L59.40-1.40Q59.36-2.05 59.31-2.75Q59.27-3.45 59.27-4.12L59.27-4.12L59.27-8.53L60.29-8.53L60.29 0L59.18 0L56.08-5.37L55.16-7.12L55.11-7.12Q55.16-6.47 55.20-5.80Q55.25-5.14 55.25-4.46L55.25-4.46L55.25 0L54.22 0ZM62.01-1.11L62.66-1.86Q63.12-1.38 63.73-1.09Q64.35-0.79 65.01-0.79L65.01-0.79Q65.86-0.79 66.33-1.18Q66.79-1.56 66.79-2.18L66.79-2.18Q66.79-2.51 66.68-2.74Q66.57-2.96 66.38-3.13Q66.20-3.29 65.94-3.42Q65.68-3.55 65.38-3.69L65.38-3.69L64.16-4.23Q63.86-4.36 63.54-4.54Q63.23-4.72 62.99-4.98Q62.74-5.24 62.58-5.60Q62.43-5.95 62.43-6.42L62.43-6.42Q62.43-6.90 62.63-7.32Q62.83-7.74 63.19-8.04Q63.54-8.35 64.03-8.52Q64.52-8.68 65.10-8.68L65.10-8.68Q65.87-8.68 66.52-8.39Q67.17-8.10 67.63-7.63L67.63-7.63L67.04-6.93Q66.65-7.31 66.18-7.52Q65.70-7.74 65.10-7.74L65.10-7.74Q64.39-7.74 63.95-7.40Q63.52-7.07 63.52-6.49L63.52-6.49Q63.52-6.18 63.64-5.96Q63.77-5.75 63.97-5.58Q64.18-5.42 64.43-5.30Q64.68-5.17 64.94-5.07L64.94-5.07L66.14-4.55Q66.51-4.39 66.83-4.19Q67.16-3.99 67.39-3.72Q67.63-3.46 67.76-3.10Q67.90-2.74 67.90-2.28L67.90-2.28Q67.90-1.77 67.70-1.33Q67.50-0.88 67.12-0.55Q66.74-0.22 66.21-0.03Q65.68 0.16 65 0.16L65 0.16Q64.10 0.16 63.34-0.18Q62.57-0.52 62.01-1.11L62.01-1.11ZM73.27-3.47L75.83-3.47L75.43-4.77Q75.19-5.49 74.98-6.19Q74.78-6.90 74.57-7.64L74.57-7.64L74.52-7.64Q74.32-6.90 74.11-6.19Q73.91-5.49 73.67-4.77L73.67-4.77L73.27-3.47ZM76.91 0L76.10-2.60L73.00-2.60L72.18 0L71.07 0L73.96-8.53L75.18-8.53L78.07 0L76.91 0ZM79.27 0L79.27-8.53L80.39-8.53L83.47-3.17L84.40-1.40L84.45-1.40Q84.41-2.05 84.36-2.75Q84.32-3.45 84.32-4.12L84.32-4.12L84.32-8.53L85.35-8.53L85.35 0L84.23 0L81.13-5.37L80.21-7.12L80.16-7.12Q80.21-6.47 80.26-5.80Q80.30-5.14 80.30-4.46L80.30-4.46L80.30 0L79.27 0ZM87.69 0L87.69-8.53L89.82-8.53Q91.79-8.53 92.82-7.44Q93.85-6.34 93.85-4.30L93.85-4.30Q93.85-3.29 93.59-2.49Q93.33-1.69 92.82-1.14Q92.31-0.59 91.57-0.29Q90.83 0 89.87 0L89.87 0L87.69 0ZM88.76-0.88L89.74-0.88Q91.23-0.88 91.98-1.78Q92.73-2.68 92.73-4.30L92.73-4.30Q92.73-5.93 91.98-6.79Q91.23-7.64 89.74-7.64L89.74-7.64L88.76-7.64L88.76-0.88ZM100.07 0L100.07-7.62L97.50-7.62L97.50-8.53L103.74-8.53L103.74-7.62L101.17-7.62L101.17 0L100.07 0ZM105.27 0L105.27-8.53L110.19-8.53L110.19-7.62L106.35-7.62L106.35-4.94L109.59-4.94L109.59-4.02L106.35-4.02L106.35-0.92L110.32-0.92L110.32 0L105.27 0ZM111.63-4.26L111.63-4.26Q111.63-5.29 111.92-6.11Q112.20-6.93 112.71-7.50Q113.22-8.07 113.91-8.38Q114.61-8.68 115.43-8.68L115.43-8.68Q116.21-8.68 116.79-8.37Q117.38-8.05 117.75-7.63L117.75-7.63L117.14-6.94Q116.81-7.31 116.40-7.52Q115.99-7.74 115.44-7.74L115.44-7.74Q114.83-7.74 114.34-7.49Q113.84-7.25 113.49-6.81Q113.14-6.36 112.94-5.72Q112.75-5.08 112.75-4.29L112.75-4.29Q112.75-3.48 112.94-2.84Q113.13-2.20 113.46-1.74Q113.80-1.29 114.29-1.04Q114.78-0.79 115.39-0.79L115.39-0.79Q116.01-0.79 116.47-1.04Q116.94-1.29 117.35-1.74L117.35-1.74L117.96-1.08Q117.46-0.49 116.82-0.17Q116.18 0.16 115.36 0.16L115.36 0.16Q114.56 0.16 113.87-0.14Q113.19-0.44 112.69-1.01Q112.19-1.57 111.91-2.40Q111.63-3.22 111.63-4.26ZM119.55 0L119.55-8.53L120.63-8.53L120.63-4.95L124.59-4.95L124.59-8.53L125.68-8.53L125.68 0L124.59 0L124.59-4.02L120.63-4.02L120.63 0L119.55 0ZM128.02 0L128.02-8.53L129.14-8.53L132.22-3.17L133.15-1.40L133.20-1.40Q133.16-2.05 133.11-2.75Q133.07-3.45 133.07-4.12L133.07-4.12L133.07-8.53L134.10-8.53L134.10 0L132.98 0L129.88-5.37L128.96-7.12L128.91-7.12Q128.96-6.47 129.01-5.80Q129.05-5.14 129.05-4.46L129.05-4.46L129.05 0L128.02 0ZM139.58 0.16L139.58 0.16Q138.78 0.16 138.11-0.16Q137.44-0.47 136.96-1.05Q136.47-1.63 136.21-2.45Q135.94-3.28 135.94-4.30L135.94-4.30Q135.94-5.33 136.21-6.14Q136.47-6.96 136.96-7.52Q137.44-8.09 138.11-8.39Q138.78-8.68 139.58-8.68L139.58-8.68Q140.39-8.68 141.06-8.38Q141.73-8.07 142.21-7.51Q142.70-6.94 142.97-6.13Q143.23-5.32 143.23-4.30L143.23-4.30Q143.23-3.28 142.97-2.45Q142.70-1.63 142.21-1.05Q141.73-0.47 141.06-0.16Q140.39 0.16 139.58 0.16ZM139.58-0.79L139.58-0.79Q140.15-0.79 140.61-1.04Q141.08-1.29 141.41-1.75Q141.74-2.21 141.92-2.85Q142.10-3.50 142.10-4.30L142.10-4.30Q142.10-5.10 141.92-5.73Q141.74-6.37 141.41-6.81Q141.08-7.25 140.61-7.49Q140.15-7.74 139.58-7.74L139.58-7.74Q139.01-7.74 138.55-7.49Q138.09-7.25 137.75-6.81Q137.42-6.37 137.24-5.73Q137.06-5.10 137.06-4.30L137.06-4.30Q137.06-3.50 137.24-2.85Q137.42-2.21 137.75-1.75Q138.09-1.29 138.55-1.04Q139.01-0.79 139.58-0.79ZM145.07 0L145.07-8.53L146.15-8.53L146.15-0.92L149.88-0.92L149.88 0L145.07 0ZM154.19 0.16L154.19 0.16Q153.39 0.16 152.72-0.16Q152.05-0.47 151.57-1.05Q151.09-1.63 150.82-2.45Q150.55-3.28 150.55-4.30L150.55-4.30Q150.55-5.33 150.82-6.14Q151.09-6.96 151.57-7.52Q152.05-8.09 152.72-8.39Q153.39-8.68 154.19-8.68L154.19-8.68Q155.00-8.68 155.67-8.38Q156.34-8.07 156.83-7.51Q157.31-6.94 157.58-6.13Q157.85-5.32 157.85-4.30L157.85-4.30Q157.85-3.28 157.58-2.45Q157.31-1.63 156.83-1.05Q156.34-0.47 155.67-0.16Q155.00 0.16 154.19 0.16ZM154.19-0.79L154.19-0.79Q154.77-0.79 155.23-1.04Q155.69-1.29 156.02-1.75Q156.35-2.21 156.53-2.85Q156.72-3.50 156.72-4.30L156.72-4.30Q156.72-5.10 156.53-5.73Q156.35-6.37 156.02-6.81Q155.69-7.25 155.23-7.49Q154.77-7.74 154.19-7.74L154.19-7.74Q153.62-7.74 153.16-7.49Q152.70-7.25 152.37-6.81Q152.04-6.37 151.85-5.73Q151.67-5.10 151.67-4.30L151.67-4.30Q151.67-3.50 151.85-2.85Q152.04-2.21 152.37-1.75Q152.70-1.29 153.16-1.04Q153.62-0.79 154.19-0.79ZM159.19-4.26L159.19-4.26Q159.19-5.29 159.48-6.11Q159.77-6.93 160.30-7.50Q160.82-8.07 161.54-8.38Q162.25-8.68 163.11-8.68L163.11-8.68Q164.00-8.68 164.59-8.35Q165.18-8.02 165.56-7.63L165.56-7.63L164.94-6.94Q164.62-7.28 164.20-7.51Q163.77-7.74 163.12-7.74L163.12-7.74Q162.47-7.74 161.95-7.49Q161.43-7.25 161.07-6.81Q160.71-6.36 160.50-5.72Q160.30-5.08 160.30-4.29L160.30-4.29Q160.30-3.48 160.49-2.84Q160.68-2.20 161.04-1.74Q161.40-1.29 161.92-1.04Q162.45-0.79 163.14-0.79L163.14-0.79Q163.59-0.79 164.00-0.93Q164.41-1.07 164.67-1.30L164.67-1.30L164.67-3.52L162.86-3.52L162.86-4.42L165.66-4.42L165.66-0.83Q165.24-0.40 164.56-0.12Q163.88 0.16 163.02 0.16L163.02 0.16Q162.18 0.16 161.47-0.14Q160.77-0.44 160.26-1.01Q159.76-1.57 159.47-2.40Q159.19-3.22 159.19-4.26ZM169.08 0L169.08-3.30L166.52-8.53L167.67-8.53L168.78-6.12Q168.99-5.66 169.18-5.20Q169.38-4.75 169.60-4.26L169.60-4.26L169.65-4.26Q169.87-4.75 170.09-5.20Q170.31-5.66 170.51-6.12L170.51-6.12L171.60-8.53L172.73-8.53L170.17-3.30L170.17 0L169.08 0Z" transform="translate(-0.676, 8.684000000000001)"></path></g></g></g></svg>